<?xml version="1.0" encoding="utf-8"?>
<!-- Generator: Adobe Illustrator 22.0.0, SVG Export Plug-In . SVG Version: 6.00 Build 0)  -->
<svg version="1.1" id="Layer_1" xmlns="http://www.w3.org/2000/svg" xmlns:xlink="http://www.w3.org/1999/xlink" x="0px" y="0px"
	 viewBox="0 0 1410.3 25.2" style="enable-background:new 0 0 1410.3 25.2;" xml:space="preserve">
<style type="text/css">
	.st0{enable-background:new    ;}
</style>
<title>Layer 1</title>
<g>
	<g class="st0">
		<path d="M2.5,18.9H0V0h13.1v2.3H2.5v5.8h9.2v2.3H2.5V18.9z"/>
		<path d="M20.4,4.7c4.4,0,6.4,3.7,6.4,7.3s-2,7.3-6.4,7.3S14,15.5,14,12S15.9,4.7,20.4,4.7z M20.4,17.3c3.3,0,4-3.4,4-5.3
			s-0.7-5.3-4-5.3s-4,3.4-4,5.3S17,17.3,20.4,17.3z"/>
		<path d="M32,18.9h-2.3V5.2h2.2v2.3l0,0c0.9-1.6,2.1-2.6,3.9-2.6c0.3,0,0.4,0,0.7,0.1v2.3h-0.9C33.3,7.3,32,8.9,32,11
			C32,11,32,18.9,32,18.9z"/>
		<path d="M38.8,5.2H41v2l0,0c0.5-0.8,1.7-2.3,4.2-2.3s3.3,1.5,3.6,2.2C50,5.7,50.9,4.8,53,4.8c1.4,0,4.3,0.8,4.3,4.6V19H55v-8.9
			c0-1.9-0.5-3.2-2.5-3.2s-3.3,1.9-3.3,3.7v8.5h-2.3V9.6c0-1.2-0.4-2.5-2.2-2.5C43.3,7,41,7.9,41,11.7v7.5h-2.3L38.8,5.2L38.8,5.2z"
			/>
		<path d="M69.6,18.9v-2l0,0c-1,1.7-2.2,2.4-4.4,2.4c-2,0-4.5-1-4.5-4.3V5.2H63v9.1c0,2.3,1.2,3.1,2.6,3.1c3,0,3.9-2.6,3.9-4.6V5.2
			h2.3V19h-2.2C69.6,19,69.6,18.9,69.6,18.9z"/>
		<path d="M77.7,18.9h-2.3V0h2.3V18.9z"/>
		<path d="M81.1,9.4c0.1-3.3,2.3-4.6,5.7-4.6c1.1,0,5.2,0.3,5.2,3.8v7.9c0,0.5,0.3,0.8,0.8,0.8c0.2,0,0.5,0,0.8-0.1v1.7
			c-0.4,0.1-0.8,0.2-1.3,0.2c-2.1,0-2.4-1.1-2.4-2.1c-0.9,1-2.3,2.2-4.9,2.2c-2.5,0-4.3-1.6-4.3-4c0-1.2,0.3-3.9,4.2-4.3l3.8-0.4
			c0.6,0,1.2-0.2,1.2-1.6s-1.1-2.2-3.3-2.2c-2.6,0-3,1.6-3.2,2.6L81.1,9.4L81.1,9.4z M89.5,11.9c-0.3,0.3-1,0.6-3.8,0.9
			c-1.1,0.1-3,0.6-3,2.2c0,1.5,0.8,2.4,2.5,2.4c2.2,0,4.3-1.4,4.3-3.3C89.5,14.1,89.5,11.9,89.5,11.9z"/>
		<path d="M98.7,7v9c0,1.1,0.9,1.1,1.4,1.1h0.8V19c-0.9,0.1-1.5,0.2-1.8,0.2c-2.3,0-2.8-1.3-2.8-3V7h-1.9V5.2h1.9V1.3h2.3v3.8h2.2v2
			h-2.2V7z"/>
		<path d="M103.2,2.6V0h2.3v2.6H103.2z M105.5,18.9h-2.3V5.2h2.3V18.9z"/>
		<path d="M114.6,4.7c4.4,0,6.4,3.7,6.4,7.3s-2,7.3-6.4,7.3s-6.4-3.7-6.4-7.3S110.2,4.7,114.6,4.7z M114.6,17.3c3.3,0,4-3.4,4-5.3
			s-0.7-5.3-4-5.3c-3.3,0-4,3.4-4,5.3S111.3,17.3,114.6,17.3z"/>
		<path d="M135,18.9h-2.3v-8.5c0-2.4-0.7-3.6-3-3.6c-1.3,0-3.6,0.9-3.6,4.6v7.5h-2.3V5.2h2.2v2l0,0c0.6-0.8,1.8-2.3,4.2-2.3
			c2.1,0,4.8,0.9,4.8,4.8C135,9.7,135,18.9,135,18.9z"/>
	</g>
	<path id="svg_5" d="M144.7,16.4l6.4-6.4l-6.4-6.4l3.6-3.6l10,10l-10,10"/>
	<path id="svg_3" d="M252.3,16.4l6.4-6.4l-6.4-6.4l3.6-3.6l10,10l-10,10"/>
	<g class="st0">
		<path d="M185.1,18.9V7.7c0-0.5,0-3,0-4.7l0,0l-5.3,16h-2.5l-5.4-15.8l0,0c0,1.8,0,4.2,0,4.7V19h-2.5V0h3.6l5.5,16.1l0,0L184,0h3.6
			v18.9H185.1z"/>
		<path d="M191.3,2.6V0h2.3v2.6H191.3z M193.6,18.9h-2.3V5.2h2.3V18.9z"/>
		<path d="M208.4,18.9h-3l-3.4-5.2l-3.3,5.2h-3l4.8-7.1l-4.6-6.7h3l3.2,4.8l3.2-4.8h2.9l-4.6,6.7L208.4,18.9z"/>
		<path d="M210.3,2.6V0h2.3v2.6H210.3z M212.6,18.9h-2.3V5.2h2.3V18.9z"/>
		<path d="M227.4,18.9h-2.3v-8.5c0-2.4-0.7-3.6-3-3.6c-1.3,0-3.6,0.9-3.6,4.6v7.5h-2.3V5.2h2.2v2l0,0c0.6-0.8,1.8-2.3,4.2-2.3
			c2.1,0,4.8,0.9,4.8,4.8L227.4,18.9L227.4,18.9z"/>
		<path d="M242.3,17.8c0,2,0,6.9-6.4,6.9c-1.6,0-4.8-0.4-5.3-4.1h2.3c0.4,2.2,2.5,2.2,3.1,2.2c4,0,4-3.2,4-4.8v-0.5l0,0v0.1
			c-0.7,1-1.9,1.9-3.6,1.9c-4.7,0-6.1-4.4-6.1-7.7c0-3.8,2.1-6.9,5.7-6.9c2.5,0,3.5,1.5,4.1,2.3l0,0v-2h2.2V17.8z M236.3,17.4
			c1.4,0,3.7-1,3.7-4.6c0-2.2-0.3-5.8-3.7-5.8c-3.6,0-3.7,3.4-3.7,5.2C232.6,15.1,233.8,17.4,236.3,17.4z"/>
	</g>
	<g class="st0">
		<path d="M283.5,19.4h-2.6L276,0.4h2.8l3.5,15.4l0,0l4.3-15.4h2.8l4.3,15.4l0,0l3.5-15.4h2.9l-5,18.9h-2.6l-4.3-15.7l0,0
			L283.5,19.4z"/>
		<path d="M313.1,15.1c-0.1,0.7-0.7,2.6-2.4,3.7c-0.7,0.4-1.5,1-3.7,1c-3.8,0-6.2-3-6.2-6.9c0-4.3,2.1-7.7,6.6-7.7
			c4,0,5.9,3.2,5.9,8h-10.1c0,2.9,1.3,4.5,4,4.5c2.2,0,3.5-1.6,3.5-2.8h2.4V15.1z M310.8,11.3c-0.1-2.1-1-4.1-3.9-4.1
			c-2.1,0-3.8,2-3.8,4.1H310.8z"/>
		<path d="M318.8,7.5v9c0,1.1,0.9,1.1,1.4,1.1h0.8v1.9c-0.9,0.1-1.5,0.2-1.8,0.2c-2.3,0-2.8-1.3-2.8-3V7.5h-1.9V5.6h1.9V1.8h2.3v3.8
			h2.2v2h-2.2V7.5z"/>
		<path d="M339.3,9.2h8.4v10.1h-1.8l-0.7-2.4c-1.3,1.8-3.6,3-6.3,3c-3.3,0-4.8-1.2-5.8-2.1c-2.9-2.8-3-5.9-3-8c0-4.6,2.8-9.8,9-9.8
			c3.5,0,7.5,2,8,6.3h-2.4c-0.8-3.3-3.6-4-5.7-4c-3.4,0-6.2,2.8-6.2,7.7c0,3.9,1.3,7.8,6.3,7.8c1,0,2.5-0.1,3.9-1.2
			c1.6-1.3,2.1-3,2.1-5.1h-5.8L339.3,9.2L339.3,9.2z"/>
		<path d="M353.9,19.4h-2.3V5.6h2.2v2.3l0,0c0.9-1.7,2.1-2.6,3.9-2.6c0.3,0,0.4,0,0.7,0.1v2.3h-0.9c-2.2,0-3.5,1.6-3.5,3.7V19.4z"/>
		<path d="M359.7,9.8c0.1-3.3,2.3-4.6,5.7-4.6c1.1,0,5.2,0.3,5.2,3.8v7.9c0,0.5,0.3,0.8,0.8,0.8c0.2,0,0.6,0,0.8-0.1v1.6
			c-0.4,0.1-0.8,0.2-1.3,0.2c-2.1,0-2.4-1.1-2.4-2.1c-0.9,1-2.3,2.2-5,2.2c-2.5,0-4.3-1.6-4.3-4c0-1.2,0.3-3.9,4.2-4.3l3.8-0.4
			c0.6,0,1.2-0.2,1.2-1.6S367.3,7,365,7c-2.6,0-3,1.7-3.2,2.6L359.7,9.8L359.7,9.8z M368.2,12.3c-0.3,0.3-1,0.6-3.9,0.9
			c-1.1,0.1-3,0.6-3,2.2c0,1.5,0.8,2.4,2.5,2.4c2.2,0,4.3-1.4,4.3-3.3L368.2,12.3L368.2,12.3z"/>
		<path d="M385.7,19.4h-2.3v-8.5c0-2.4-0.7-3.6-3-3.6c-1.3,0-3.6,0.9-3.6,4.6v7.5h-2.3V5.6h2.2v2l0,0c0.6-0.8,1.8-2.3,4.2-2.3
			c2.1,0,4.8,0.9,4.8,4.8L385.7,19.4L385.7,19.4z"/>
		<path d="M397.8,19.4v-2l0,0c-1,1.7-2.2,2.4-4.4,2.4c-2,0-4.5-1-4.5-4.3V5.6h2.3v9.1c0,2.3,1.2,3.1,2.6,3.1c3,0,3.8-2.6,3.8-4.6
			V5.6h2.3v13.9h-2.2V19.4z"/>
		<path d="M406,19.4h-2.3V0.4h2.3V19.4z"/>
		<path d="M409.4,9.8c0.1-3.3,2.3-4.6,5.7-4.6c1.1,0,5.2,0.3,5.2,3.8v7.9c0,0.5,0.3,0.8,0.8,0.8c0.2,0,0.5,0,0.8-0.1v1.6
			c-0.4,0.1-0.8,0.2-1.3,0.2c-2.1,0-2.4-1.1-2.4-2.1c-0.9,1-2.3,2.2-4.9,2.2c-2.5,0-4.3-1.6-4.3-4c0-1.2,0.3-3.9,4.2-4.3l3.9-0.4
			c0.5,0,1.2-0.2,1.2-1.6S417,7,414.8,7c-2.6,0-3,1.7-3.2,2.6L409.4,9.8L409.4,9.8z M417.8,12.3c-0.3,0.3-1,0.6-3.9,0.9
			c-1.1,0.1-3,0.6-3,2.2c0,1.5,0.8,2.4,2.5,2.4c2.2,0,4.3-1.4,4.3-3.3L417.8,12.3L417.8,12.3z"/>
		<path d="M427,7.5v9c0,1.1,0.9,1.1,1.4,1.1h0.8v1.9c-0.9,0.1-1.5,0.2-1.8,0.2c-2.3,0-2.8-1.3-2.8-3V7.5h-1.9V5.6h1.9V1.8h2.3v3.8
			h2.2v2H427V7.5z"/>
		<path d="M431.5,3.1V0.4h2.3v2.6H431.5z M433.8,19.4h-2.3V5.6h2.3V19.4z"/>
		<path d="M442.9,5.2c4.4,0,6.4,3.7,6.4,7.3s-2,7.3-6.4,7.3s-6.4-3.7-6.4-7.3C436.5,8.9,438.5,5.2,442.9,5.2z M442.9,17.7
			c3.3,0,4-3.4,4-5.3s-0.7-5.3-4-5.3c-3.3,0-4,3.4-4,5.3C438.9,14.3,439.6,17.7,442.9,17.7z"/>
		<path d="M463.2,19.4h-2.3v-8.5c0-2.4-0.7-3.6-3-3.6c-1.3,0-3.6,0.9-3.6,4.6v7.5h-2.3V5.6h2.2v2l0,0c0.6-0.8,1.8-2.3,4.2-2.3
			c2.1,0,4.8,0.9,4.8,4.8L463.2,19.4L463.2,19.4z"/>
	</g>
	<path id="svg_7" d="M473.2,16.4l6.4-6.4l-6.4-6.4l3.6-3.6l10,10l-10,10"/>
	<path id="svg_7_1_" d="M688.9,16.4l6.4-6.4l-6.4-6.4l3.6-3.6l10,10l-10,10"/>
	<g class="st0">
		<path d="M497.6,0.4h7.7c4.9,0,7.9,3.7,7.9,9.2c0,4.3-1.9,9.8-8,9.8h-7.6V0.4z M500.3,17.2h4.9c3.3,0,5.5-2.6,5.5-7.4
			s-2.2-7.2-5.7-7.2h-4.7V17.2z"/>
		<path d="M519,19.4h-2.3V5.6h2.2v2.3l0,0c0.9-1.7,2.1-2.6,3.9-2.6c0.3,0,0.4,0,0.7,0.1v2.3h-0.9c-2.2,0-3.5,1.6-3.5,3.7V19.4z"/>
		<path d="M534.5,5.6h2.5c-1.7,4.5-3.2,9-5,13.5c-2.2,5.6-2.4,5.9-5.4,5.9c-0.3,0-0.7-0.1-1-0.2v-2.1c0.3,0.1,0.8,0.2,1.4,0.2
			c1.2,0,1.3-0.3,2.4-3.2l-5.2-14.2h2.6l3.6,11.2l0,0L534.5,5.6z"/>
		<path d="M555,9.2h8.4v10.1h-1.7l-0.7-2.4c-1.3,1.8-3.6,3-6.3,3c-3.3,0-4.8-1.2-5.8-2.1c-2.9-2.8-3-5.9-3-8c0-4.6,2.8-9.8,9-9.8
			c3.5,0,7.5,2,8,6.3h-2.5c-0.8-3.3-3.6-4-5.7-4c-3.4,0-6.2,2.8-6.2,7.7c0,3.9,1.3,7.8,6.3,7.8c1,0,2.5-0.1,3.8-1.2
			c1.7-1.3,2.1-3,2.1-5.1H555L555,9.2L555,9.2z"/>
		<path d="M569.6,19.4h-2.3V5.6h2.2v2.3l0,0c0.9-1.7,2.1-2.6,3.8-2.6c0.3,0,0.4,0,0.7,0.1v2.3h-0.9c-2.2,0-3.5,1.6-3.5,3.7V19.4z"/>
		<path d="M575.4,9.8c0.1-3.3,2.3-4.6,5.7-4.6c1.1,0,5.2,0.3,5.2,3.8v7.9c0,0.5,0.3,0.8,0.8,0.8c0.2,0,0.5,0,0.8-0.1v1.6
			c-0.4,0.1-0.8,0.2-1.3,0.2c-2.1,0-2.4-1.1-2.4-2.1c-0.9,1-2.3,2.2-4.9,2.2c-2.5,0-4.3-1.6-4.3-4c0-1.2,0.3-3.9,4.2-4.3l3.8-0.4
			c0.5,0,1.2-0.2,1.2-1.6S583,7,580.8,7c-2.6,0-3,1.7-3.2,2.6L575.4,9.8L575.4,9.8z M584,12.3c-0.3,0.3-1,0.6-3.8,0.9
			c-1.1,0.1-3,0.6-3,2.2c0,1.5,0.8,2.4,2.5,2.4c2.2,0,4.3-1.4,4.3-3.3V12.3z"/>
		<path d="M601.5,19.4h-2.3v-8.5c0-2.4-0.7-3.6-3-3.6c-1.3,0-3.6,0.9-3.6,4.6v7.5h-2.4V5.6h2.2v2l0,0c0.6-0.8,1.8-2.3,4.2-2.3
			c2.1,0,4.8,0.9,4.8,4.8L601.5,19.4L601.5,19.4z"/>
		<path d="M613.6,19.4v-2l0,0c-1,1.7-2.2,2.4-4.4,2.4c-2,0-4.5-1-4.5-4.3V5.6h2.3v9.1c0,2.3,1.2,3.1,2.6,3.1c3,0,3.9-2.6,3.9-4.6
			V5.6h2.3v13.9h-2.2V19.4z"/>
		<path d="M621.6,19.4h-2.3V0.4h2.3V19.4z"/>
		<path d="M625,9.8c0.1-3.3,2.3-4.6,5.7-4.6c1.1,0,5.2,0.3,5.2,3.8v7.9c0,0.5,0.3,0.8,0.8,0.8c0.2,0,0.5,0,0.8-0.1v1.6
			c-0.4,0.1-0.8,0.2-1.3,0.2c-2.1,0-2.4-1.1-2.4-2.1c-0.9,1-2.3,2.2-5,2.2c-2.5,0-4.3-1.6-4.3-4c0-1.2,0.3-3.9,4.2-4.3l3.9-0.4
			c0.5,0,1.2-0.2,1.2-1.6S632.6,7,630.4,7c-2.6,0-3,1.7-3.2,2.6L625,9.8L625,9.8z M633.6,12.3c-0.3,0.3-1,0.6-3.8,0.9
			c-1.1,0.1-3,0.6-3,2.2c0,1.5,0.8,2.4,2.5,2.4c2.2,0,4.3-1.4,4.3-3.3V12.3z"/>
		<path d="M642.7,7.5v9c0,1.1,0.9,1.1,1.4,1.1h0.8v1.9c-0.9,0.1-1.5,0.2-1.8,0.2c-2.3,0-2.8-1.3-2.8-3V7.5h-1.9V5.6h1.9V1.8h2.3v3.8
			h2.2v2h-2.2V7.5z"/>
		<path d="M647.2,3.1V0.4h2.3v2.6H647.2z M649.6,19.4h-2.3V5.6h2.3V19.4z"/>
		<path d="M658.7,5.2c4.4,0,6.4,3.7,6.4,7.3s-2,7.3-6.4,7.3c-4.4,0-6.4-3.7-6.4-7.3C652.2,8.9,654.3,5.2,658.7,5.2z M658.7,17.7
			c3.3,0,4-3.4,4-5.3s-0.7-5.3-4-5.3s-4,3.4-4,5.3C654.6,14.3,655.3,17.7,658.7,17.7z"/>
		<path d="M678.9,19.4h-2.3v-8.5c0-2.4-0.7-3.6-3-3.6c-1.3,0-3.6,0.9-3.6,4.6v7.5h-2.3V5.6h2.2v2l0,0c0.5-0.8,1.8-2.3,4.2-2.3
			c2.1,0,4.8,0.9,4.8,4.8L678.9,19.4L678.9,19.4z"/>
	</g>
	<g class="st0">
		<path d="M727.4,0.4v12.3c0,3.8-2.4,7.2-7.6,7.2c-5.1,0-7.3-3.3-7.3-6.8V0.4h2.5v11.9c0,4.1,2.5,5.3,4.8,5.3c2.3,0,5-1.1,5-5.2v-12
			H727.4z"/>
		<path d="M742.4,19.4h-2.3v-8.5c0-2.4-0.7-3.6-3-3.6c-1.3,0-3.6,0.9-3.6,4.6v7.5h-2.3V5.6h2.2v2l0,0c0.5-0.8,1.8-2.3,4.2-2.3
			c2.1,0,4.8,0.9,4.8,4.8L742.4,19.4L742.4,19.4z"/>
		<path d="M745.9,3.1V0.4h2.3v2.6H745.9z M748.3,19.4H746V5.6h2.3V19.4z"/>
		<path d="M754.5,7.5v11.9h-2.3V7.5h-1.9v-2h1.9V3.1c0-2.1,1.3-3.1,3.6-3.1c0.3,0,0.7,0,1.1,0v2.1c-0.3,0-0.7,0-1,0
			c-1,0-1.3,0.5-1.3,1.6v1.8h2.3v2C757,7.5,754.5,7.5,754.5,7.5z"/>
		<path d="M763.9,5.2c4.4,0,6.4,3.7,6.4,7.3s-2,7.3-6.4,7.3c-4.4,0-6.4-3.7-6.4-7.3C757.4,8.9,759.5,5.2,763.9,5.2z M763.9,17.7
			c3.3,0,4-3.4,4-5.3s-0.7-5.3-4-5.3s-4,3.4-4,5.3S760.6,17.7,763.9,17.7z"/>
		<path d="M775.6,19.4h-2.3V5.6h2.2v2.3l0,0c0.9-1.7,2.1-2.6,3.8-2.6c0.3,0,0.4,0,0.7,0.1v2.3h-0.9c-2.2,0-3.5,1.7-3.5,3.7V19.4z"/>
		<path d="M782.4,5.6h2.2v2l0,0c0.5-0.8,1.6-2.3,4.2-2.3c2.5,0,3.3,1.5,3.6,2.2c1.2-1.3,2.1-2.2,4.2-2.2c1.4,0,4.3,0.8,4.3,4.6v9.6
			h-2.3v-8.9c0-1.9-0.5-3.2-2.5-3.2s-3.3,1.9-3.3,3.7v8.5h-2.3V10c0-1.2-0.4-2.5-2.2-2.5c-1.3,0-3.6,0.9-3.6,4.6v7.5h-2.3v-14H782.4
			z"/>
		<path d="M811.9,0.4h8.4c3.5,0,5.4,2.2,5.4,4.7c0,1.2-0.4,3-2.5,4c1.2,0.6,3.4,1.3,3.4,4.6c0,3.1-2.2,5.6-6.5,5.6h-8.1L811.9,0.4
			L811.9,0.4z M814.5,8.5h4.6c2.4,0,4-0.8,4-3.1c0-1.8-1.1-2.8-4-2.8h-4.6V8.5z M814.5,17.2h5.5c2.6,0,4-1.3,4-3.4
			c0-2.6-2.3-3.2-4.4-3.2h-5.1V17.2z"/>
		<path d="M831.7,19.4h-2.3V0.4h2.3V19.4z"/>
		<path d="M846.9,15.1c-0.1,0.7-0.7,2.6-2.4,3.7c-0.7,0.4-1.5,1-3.7,1c-3.9,0-6.2-3-6.2-6.9c0-4.3,2.1-7.7,6.6-7.7
			c4,0,5.9,3.2,5.9,8H837c0,2.9,1.3,4.5,4,4.5c2.2,0,3.5-1.6,3.5-2.8L846.9,15.1L846.9,15.1z M844.7,11.3c-0.1-2.1-1-4.1-3.8-4.1
			c-2.1,0-3.9,2-3.9,4.1H844.7z"/>
		<path d="M861,19.4h-2.3v-8.5c0-2.4-0.7-3.6-3-3.6c-1.3,0-3.6,0.9-3.6,4.6v7.5h-2.3V5.6h2.2v2l0,0c0.5-0.8,1.8-2.3,4.2-2.3
			c2.1,0,4.8,0.9,4.8,4.8L861,19.4L861,19.4z"/>
		<path d="M876.1,19.4h-2.2v-1.9l0,0c-1,1.9-2.6,2.3-4,2.3c-4.7,0-6.1-4.4-6.1-7.7c0-3.9,2.1-6.9,5.7-6.9c2.5,0,3.5,1.5,4.1,2.3V7.3
			V0.3h2.3L876.1,19.4L876.1,19.4z M869.8,17.8c1.4,0,3.7-1,3.7-4.6c0-2.2-0.3-5.8-3.7-5.8c-3.6,0-3.7,3.4-3.7,5.2
			C866.2,15.5,867.3,17.8,869.8,17.8z"/>
		<path d="M879.2,3.1V0.4h2.3v2.6H879.2z M881.6,19.4h-2.3V5.6h2.3V19.4z"/>
		<path d="M896.2,19.4h-2.3v-8.5c0-2.4-0.7-3.6-3-3.6c-1.3,0-3.6,0.9-3.6,4.6v7.5H885V5.6h2.2v2l0,0c0.6-0.8,1.8-2.3,4.2-2.3
			c2.1,0,4.8,0.9,4.8,4.8L896.2,19.4L896.2,19.4z"/>
		<path d="M911.3,18.3c0,2,0,6.9-6.4,6.9c-1.7,0-4.8-0.4-5.3-4.1h2.3c0.4,2.2,2.5,2.2,3.1,2.2c4,0,4-3.2,4-4.8v-0.5l0,0V18
			c-0.7,1-1.9,1.9-3.6,1.9c-4.7,0-6-4.4-6-7.7c0-3.9,2.1-6.9,5.7-6.9c2.5,0,3.5,1.5,4.1,2.3l0,0v-2h2.2V18.3z M905.2,17.8
			c1.4,0,3.7-1,3.7-4.6c0-2.2-0.3-5.8-3.7-5.8c-3.6,0-3.7,3.4-3.7,5.2C901.6,15.5,902.7,17.8,905.2,17.8z"/>
		<path d="M937.1,19.4h-3l-1.8-2.2c-1.3,1.4-2.8,2.5-5.5,2.5c-4.7,0-5.6-3.5-5.6-5c0-2.6,0.8-4,4.3-5.9c-1.3-1.7-2-2.5-2-4.2
			c0-2.2,1.5-4.2,4.5-4.2c3,0,4.3,2,4.3,4c0,2.6-2,4-3.4,5l3.4,4.1c0.4-1.2,0.5-1.5,0.8-3h2.2c-0.1,1.3-0.5,3.1-1.5,4.8L937.1,19.4z
			 M926.7,10.4c-2,1.3-3.3,2.2-3.3,4.2c0,2.4,2.3,3.2,3.4,3.2c1.6,0,3.1-0.8,4.1-2.1L926.7,10.4z M930,4.5c0-1.7-1.3-2.1-2-2.1
			c-2,0-2.2,1.4-2.2,2.1c0,1.2,1.2,2.6,1.9,3.3C928.7,7.1,930,6.2,930,4.5z"/>
		<path d="M949.6,17.2h9.6v2.3h-12.2v-19h2.5L949.6,17.2L949.6,17.2z"/>
		<path d="M970.5,19.4v-2l0,0c-1,1.6-2.2,2.4-4.4,2.4c-2,0-4.5-1-4.5-4.3V5.6h2.3v9.1c0,2.3,1.2,3.1,2.6,3.1c3,0,3.8-2.6,3.8-4.6
			V5.6h2.3v13.9L970.5,19.4L970.5,19.4z"/>
		<path d="M976,19.4V0.4h2.3v6.9l0,0c1-1.4,2.4-2.1,4-2.1c3.6,0,5.7,3,5.7,6.9c0,3.3-1.3,7.7-6,7.7c-2.3,0-3.3-1.3-3.9-2.1l0,0v1.8
			H976L976,19.4L976,19.4z M981.9,7.3c-3.3,0-3.7,3.6-3.7,5.8c0,3.6,2.3,4.6,3.7,4.6c2.5,0,3.7-2.3,3.7-5.3
			C985.5,10.7,985.3,7.3,981.9,7.3z"/>
		<path d="M993.5,19.4h-2.3V5.6h2.2v2.3l0,0c0.9-1.7,2.1-2.6,3.8-2.6c0.3,0,0.4,0,0.7,0.1v2.3H997c-2.2,0-3.5,1.7-3.5,3.7V19.4z"/>
		<path d="M1000.1,3.1V0.4h2.3v2.6H1000.1z M1002.4,19.4h-2.3V5.6h2.3V19.4z"/>
		<path d="M1014.5,10.2c-0.3-1.9-1.3-3-3.3-3c-2.9,0-3.8,2.7-3.8,5.2s0.5,5.3,3.7,5.3c1.5,0,2.9-1.2,3.3-3.3h2.2
			c-0.2,2.2-1.5,5.3-5.6,5.3c-3.8,0-6.2-3-6.2-6.9c0-4.3,2.1-7.7,6.6-7.7c3.6,0,5,2.6,5.2,5.1L1014.5,10.2L1014.5,10.2z"/>
		<path d="M1018.9,9.8c0.1-3.3,2.3-4.6,5.7-4.6c1.1,0,5.2,0.3,5.2,3.9v7.9c0,0.5,0.3,0.8,0.8,0.8c0.2,0,0.5,0,0.8-0.1v1.6
			c-0.4,0.1-0.8,0.2-1.3,0.2c-2.1,0-2.4-1.1-2.4-2.1c-0.9,1-2.3,2.2-5,2.2c-2.5,0-4.3-1.6-4.3-4c0-1.2,0.3-3.8,4.2-4.3l3.8-0.4
			c0.5,0,1.2-0.2,1.2-1.7s-1.1-2.2-3.3-2.2c-2.6,0-3,1.6-3.2,2.6h-2.2L1018.9,9.8L1018.9,9.8z M1027.3,12.3c-0.3,0.3-1,0.6-3.8,0.9
			c-1.1,0.1-3,0.6-3,2.2c0,1.5,0.8,2.4,2.5,2.4c2.2,0,4.3-1.4,4.3-3.3V12.3z"/>
		<path d="M1036.5,7.5v9c0,1.1,0.9,1.1,1.4,1.1h0.8v1.9c-0.9,0.1-1.5,0.2-1.8,0.2c-2.3,0-2.8-1.3-2.8-3V7.6h-1.9v-2h1.9V1.8h2.3v3.8
			h2.2v2L1036.5,7.5L1036.5,7.5z"/>
		<path d="M1041,3.1V0.4h2.3v2.6H1041z M1043.3,19.4h-2.3V5.6h2.3V19.4z"/>
		<path d="M1052.4,5.2c4.4,0,6.4,3.7,6.4,7.3s-2,7.3-6.4,7.3s-6.4-3.7-6.4-7.3S1048,5.2,1052.4,5.2z M1052.4,17.7c3.3,0,4-3.4,4-5.3
			s-0.7-5.3-4-5.3s-4,3.4-4,5.3S1049.1,17.7,1052.4,17.7z"/>
		<path d="M1072.8,19.4h-2.3v-8.5c0-2.4-0.7-3.6-3-3.6c-1.3,0-3.6,0.9-3.6,4.6v7.5h-2.3V5.6h2.2v2l0,0c0.5-0.8,1.8-2.3,4.2-2.3
			c2.1,0,4.8,0.9,4.8,4.8L1072.8,19.4L1072.8,19.4z"/>
	</g>
	<g class="st0">
		<path d="M1120.3,6.3c-0.7-3.3-3.5-4-5.3-4c-3.4,0-6.2,2.5-6.2,7.5c0,4.5,1.5,7.9,6.3,7.9c1.7,0,4.5-0.8,5.4-5.2h2.5
			c-1.1,7.1-6.8,7.5-8.3,7.5c-4.3,0-8.6-2.8-8.6-10.1c0-5.8,3.3-9.9,8.8-9.9c4.8,0,7.4,3.1,7.8,6.2L1120.3,6.3L1120.3,6.3z"/>
		<path d="M1131.4,5.3c4.4,0,6.4,3.7,6.4,7.3s-2,7.3-6.4,7.3s-6.4-3.7-6.4-7.3S1127,5.3,1131.4,5.3z M1131.4,17.8c3.3,0,4-3.4,4-5.3
			s-0.7-5.3-4-5.3c-3.3,0-4,3.4-4,5.3S1128.1,17.8,1131.4,17.8z"/>
		<path d="M1140.4,5.7h2.2v2l0,0c0.6-0.8,1.7-2.3,4.2-2.3s3.3,1.5,3.6,2.2c1.2-1.3,2.1-2.2,4.2-2.2c1.4,0,4.3,0.8,4.3,4.6v9.6h-2.3
			v-8.9c0-1.9-0.6-3.2-2.5-3.2c-2,0-3.3,1.9-3.3,3.7v8.5h-2.3v-9.6c0-1.2-0.4-2.5-2.2-2.5c-1.3,0-3.6,0.9-3.6,4.6v7.5h-2.3
			L1140.4,5.7L1140.4,5.7z"/>
		<path d="M1162.3,5.7h2.2v2l0,0c0.6-0.8,1.7-2.3,4.1-2.3c3.6,0,5.7,3,5.7,6.9c0,3.3-1.3,7.7-6.1,7.7c-1.9,0-3.1-0.9-3.6-1.9l0,0
			v6.9h-2.3L1162.3,5.7L1162.3,5.7z M1168.2,17.9c2.5,0,3.7-2.3,3.7-5.3c0-1.8-0.2-5.2-3.7-5.2c-3.3,0-3.7,3.6-3.7,5.8
			C1164.5,16.9,1166.8,17.9,1168.2,17.9z"/>
		<path d="M1179.8,19.5h-2.3V5.7h2.2V8l0,0c0.9-1.7,2.1-2.6,3.8-2.6c0.3,0,0.4,0,0.7,0.1v2.3h-0.9c-2.2,0-3.5,1.6-3.5,3.7V19.5z"/>
		<path d="M1197.6,15.2c-0.1,0.7-0.7,2.6-2.4,3.7c-0.7,0.4-1.5,1-3.7,1c-3.8,0-6.2-3-6.2-6.9c0-4.3,2.1-7.7,6.6-7.7
			c4,0,5.9,3.2,5.9,8h-10.1c0,2.9,1.3,4.5,4,4.5c2.2,0,3.5-1.6,3.5-2.8L1197.6,15.2L1197.6,15.2z M1195.4,11.4
			c-0.1-2.1-1-4.1-3.9-4.1c-2.1,0-3.8,2-3.8,4.1H1195.4z"/>
		<path d="M1208.4,9.6c0-0.9-0.3-2.3-3.3-2.3c-0.7,0-2.8,0.2-2.8,2c0,1.1,0.7,1.4,2.5,1.9l2.3,0.6c2.9,0.7,3.8,1.8,3.8,3.6
			c0,2.9-2.3,4.6-5.5,4.6c-5.5,0-5.8-3.2-5.9-4.8h2.2c0.1,1.1,0.4,2.9,3.6,2.9c1.7,0,3.2-0.7,3.2-2.2c0-1.1-0.8-1.4-2.8-2l-2.6-0.7
			c-2-0.4-3.2-1.4-3.2-3.3c0-3.1,2.5-4.4,5.3-4.4c5,0,5.3,3.6,5.3,4.3L1208.4,9.6L1208.4,9.6z"/>
		<path d="M1221.6,9.6c0-0.9-0.3-2.3-3.3-2.3c-0.7,0-2.8,0.2-2.8,2c0,1.1,0.7,1.4,2.5,1.9l2.3,0.6c2.9,0.7,3.9,1.8,3.9,3.6
			c0,2.9-2.3,4.6-5.5,4.6c-5.5,0-5.8-3.2-5.9-4.8h2.2c0.1,1.1,0.4,2.9,3.6,2.9c1.7,0,3.2-0.7,3.2-2.2c0-1.1-0.8-1.4-2.8-2l-2.6-0.7
			c-2-0.4-3.2-1.4-3.2-3.3c0-3.1,2.5-4.4,5.3-4.4c4.9,0,5.3,3.6,5.3,4.3L1221.6,9.6L1221.6,9.6z"/>
		<path d="M1227.1,3.2V0.6h2.3v2.6H1227.1z M1229.4,19.5h-2.3V5.7h2.3V19.5z"/>
		<path d="M1238.5,5.3c4.4,0,6.4,3.7,6.4,7.3s-2,7.3-6.4,7.3s-6.4-3.7-6.4-7.3C1232,9,1234.1,5.3,1238.5,5.3z M1238.5,17.8
			c3.3,0,4-3.4,4-5.3s-0.7-5.3-4-5.3c-3.3,0-4,3.4-4,5.3C1234.4,14.4,1235.1,17.8,1238.5,17.8z"/>
		<path d="M1258.7,19.5h-2.3V11c0-2.4-0.7-3.6-3-3.6c-1.3,0-3.6,0.9-3.6,4.6v7.5h-2.3V5.7h2.2v2l0,0c0.6-0.8,1.8-2.3,4.2-2.3
			c2.1,0,4.8,0.9,4.8,4.8L1258.7,19.5L1258.7,19.5z"/>
	</g>
	<path id="svg_7_3_" d="M1268.7,16.4l6.4-6.4l-6.4-6.4l3.6-3.6l10,10l-10,10"/>
	<g class="st0">
		<path d="M1294.9,18.9h-2.5V0h8.6c3.5,0,5.6,2.3,5.6,5.3c0,2.6-1.5,5.6-5.6,5.6h-6V18.9z M1294.9,8.8h5.1c2.3,0,3.8-0.9,3.8-3.4
			c0-2.4-1.7-3.2-3.7-3.2h-5.2V8.8z"/>
		<path d="M1308.3,9.4c0.1-3.3,2.3-4.6,5.7-4.6c1.1,0,5.2,0.3,5.2,3.8v7.9c0,0.5,0.3,0.8,0.8,0.8c0.2,0,0.6,0,0.8-0.1v1.7
			c-0.4,0.1-0.8,0.2-1.3,0.2c-2.1,0-2.4-1.1-2.4-2.1c-0.9,1-2.3,2.2-5,2.2c-2.5,0-4.3-1.6-4.3-4c0-1.2,0.3-3.9,4.2-4.3l3.8-0.4
			c0.6,0,1.2-0.2,1.2-1.6s-1.1-2.2-3.3-2.2c-2.6,0-3,1.6-3.2,2.6h-2.2L1308.3,9.4L1308.3,9.4z M1316.8,11.9c-0.3,0.3-1,0.6-3.8,0.9
			c-1.1,0.1-3,0.6-3,2.2c0,1.5,0.8,2.4,2.5,2.4c2.2,0,4.3-1.4,4.3-3.3L1316.8,11.9L1316.8,11.9z"/>
		<path d="M1331.6,9.8c-0.3-1.9-1.3-3-3.3-3c-2.9,0-3.8,2.8-3.8,5.2s0.6,5.3,3.7,5.3c1.5,0,2.9-1.2,3.3-3.3h2.2
			c-0.2,2.2-1.5,5.3-5.6,5.3c-3.9,0-6.2-3-6.2-6.9c0-4.3,2.1-7.7,6.6-7.7c3.6,0,5,2.6,5.2,5.1L1331.6,9.8L1331.6,9.8z"/>
		<path d="M1347.2,18.9h-3L1340,12l-2,1.8V19h-2.2V0h2.2v11l5.9-5.8h3l-5.3,5.2L1347.2,18.9z"/>
		<path d="M1348.8,9.4c0.1-3.3,2.3-4.6,5.7-4.6c1.1,0,5.2,0.3,5.2,3.8v7.9c0,0.5,0.3,0.8,0.8,0.8c0.2,0,0.6,0,0.8-0.1v1.7
			c-0.4,0.1-0.8,0.2-1.3,0.2c-2.1,0-2.4-1.1-2.4-2.1c-0.9,1-2.3,2.2-4.9,2.2c-2.5,0-4.3-1.6-4.3-4c0-1.2,0.3-3.9,4.2-4.3l3.8-0.4
			c0.6,0,1.2-0.2,1.2-1.6s-1.1-2.2-3.3-2.2c-2.6,0-3,1.6-3.2,2.6h-2.2L1348.8,9.4L1348.8,9.4z M1357.2,11.9c-0.3,0.3-1,0.6-3.8,0.9
			c-1.1,0.1-3,0.6-3,2.2c0,1.5,0.8,2.4,2.5,2.4c2.2,0,4.3-1.4,4.3-3.3C1357.2,14.1,1357.2,11.9,1357.2,11.9z"/>
		<path d="M1374.9,17.8c0,2,0,6.9-6.4,6.9c-1.7,0-4.8-0.4-5.3-4.1h2.3c0.4,2.2,2.5,2.2,3.1,2.2c4,0,4-3.2,4-4.8v-0.5l0,0v0.1
			c-0.7,0.9-1.9,1.8-3.6,1.8c-4.7,0-6.1-4.4-6.1-7.7c0-3.9,2.1-6.9,5.7-6.9c2.5,0,3.5,1.5,4.1,2.3l0,0v-2h2.2
			C1374.9,5.1,1374.9,17.8,1374.9,17.8z M1369,17.4c1.4,0,3.7-1,3.7-4.6c0-2.2-0.3-5.8-3.7-5.8c-3.6,0-3.7,3.4-3.7,5.2
			C1365.3,15.1,1366.5,17.4,1369,17.4z"/>
		<path d="M1378.3,2.6V0h2.3v2.6H1378.3z M1380.6,18.9h-2.3V5.2h2.3V18.9z"/>
		<path d="M1395.3,18.9h-2.3v-8.5c0-2.4-0.7-3.6-3-3.6c-1.3,0-3.6,0.9-3.6,4.6v7.5h-2.3V5.2h2.2v2l0,0c0.6-0.8,1.8-2.3,4.2-2.3
			c2.1,0,4.8,0.9,4.8,4.8C1395.3,9.7,1395.3,18.9,1395.3,18.9z"/>
		<path d="M1410.3,17.8c0,2,0,6.9-6.4,6.9c-1.6,0-4.8-0.4-5.3-4.1h2.3c0.4,2.2,2.5,2.2,3.1,2.2c4,0,4-3.2,4-4.8v-0.5l0,0v0.1
			c-0.7,1-1.9,1.9-3.6,1.9c-4.7,0-6.1-4.4-6.1-7.7c0-3.8,2.1-6.9,5.7-6.9c2.5,0,3.5,1.5,4.1,2.3l0,0v-2h2.2L1410.3,17.8L1410.3,17.8
			z M1404.2,17.4c1.4,0,3.7-1,3.7-4.6c0-2.2-0.3-5.8-3.7-5.8c-3.6,0-3.7,3.4-3.7,5.2C1400.5,15.1,1401.7,17.4,1404.2,17.4z"/>
	</g>
	<path id="svg_7_2_" d="M1082.6,16.4l6.4-6.4l-6.4-6.4l3.6-3.6l10,10l-10,10"/>
</g>
</svg>
