<?xml version="1.0" encoding="utf-8"?>
<!-- Generator: Adobe Illustrator 22.0.0, SVG Export Plug-In . SVG Version: 6.00 Build 0)  -->
<svg version="1.1" id="Layer_1" xmlns="http://www.w3.org/2000/svg" xmlns:xlink="http://www.w3.org/1999/xlink" x="0px" y="0px"
	 viewBox="0 0 1201.8 63" style="enable-background:new 0 0 1201.8 63;" xml:space="preserve">
<title>Layer 1</title>
<g>
	<path id="svg_5" d="M246.7,37.9l6.4-6.4l-6.4-6.4l3.6-3.6l10,10l-10,10"/>
	<path id="svg_5_1_" d="M407.9,37.9l6.4-6.4l-6.4-6.4l3.6-3.6l10,10l-10,10"/>
	<path id="svg_5_2_" d="M632.2,37.9l6.4-6.4l-6.4-6.4l3.6-3.6l10,10l-10,10"/>
	<path id="svg_5_3_" d="M763.7,37.9l6.4-6.4l-6.4-6.4l3.6-3.6l10,10l-10,10"/>
	<path id="svg_7_3_" d="M994.3,37.9l6.4-6.4l-6.4-6.4l3.6-3.6l10,10l-10,10"/>
	<g>
		<path d="M0,0h7.1c3.4,0,6,0.9,7.9,2.8c1.9,1.8,2.8,4.5,2.8,7.8s-0.9,6-2.8,7.9c-1.9,1.8-4.5,2.8-7.9,2.8H0V0z M7,19.1
			c5.5,0,8.3-2.8,8.3-8.5c0-5.7-2.8-8.5-8.3-8.5H2.5v17H7z"/>
		<path d="M30.2,8.3l-1.6,0.2c-1.5,0.1-2.6,0.6-3.3,1.4s-1,1.8-1,3v8.4h-2.4V6.6h2.4v2.6c0.8-1.7,2.4-2.7,4.8-2.9L30,6.2L30.2,8.3z"
			/>
		<path d="M43.9,6.6h2.4l-8.7,20.1h-2.5l2.5-5.6L31.5,6.6h2.6l4.9,12L43.9,6.6z"/>
		<path d="M57,21.2V0h2.5v21.2H57z"/>
		<path d="M77,12v9.2h-2.4v-9.1c0-1.4-0.3-2.4-0.8-3c-0.5-0.6-1.4-0.9-2.5-0.9c-1.3,0-2.4,0.4-3.2,1.2c-0.8,0.8-1.2,1.9-1.2,3.3v8.4
			h-2.4V6.6h2.4V9c0.5-0.9,1.2-1.6,2-2.1c0.9-0.5,1.8-0.7,3-0.7C75.3,6.2,77,8.1,77,12z"/>
		<path d="M94.6,6.6v13.7c0,2.2-0.6,3.8-1.7,5c-1.1,1.1-2.8,1.7-5,1.7c-2.6,0-4.7-0.7-6.5-2l0.8-1.8c1,0.6,1.9,1.1,2.8,1.4
			c0.9,0.3,1.8,0.4,2.9,0.4c1.4,0,2.5-0.4,3.2-1.1c0.7-0.8,1.1-1.9,1.1-3.3v-2.6c-0.4,0.9-1.1,1.7-1.9,2.2c-0.9,0.5-1.9,0.8-3.1,0.8
			c-1.3,0-2.4-0.3-3.4-0.9c-1-0.6-1.8-1.5-2.3-2.6c-0.6-1.1-0.8-2.4-0.8-3.8s0.3-2.7,0.8-3.8c0.6-1.1,1.3-2,2.3-2.6
			c1-0.6,2.1-0.9,3.4-0.9c1.2,0,2.2,0.3,3,0.8c0.9,0.5,1.5,1.2,2,2.1V6.6H94.6z M91,17.4c0.8-0.9,1.2-2.2,1.2-3.9
			c0-1.6-0.4-2.9-1.2-3.8c-0.8-0.9-1.9-1.4-3.3-1.4c-1.4,0-2.5,0.5-3.4,1.4c-0.8,0.9-1.2,2.2-1.2,3.8c0,1.6,0.4,2.9,1.2,3.9
			c0.8,0.9,1.9,1.4,3.4,1.4C89.1,18.8,90.2,18.3,91,17.4z"/>
		<path d="M107.4,8.3l-1.6,0.2c-1.5,0.1-2.6,0.6-3.3,1.4c-0.7,0.8-1,1.8-1,3v8.4h-2.4V6.6h2.4v2.6c0.8-1.7,2.4-2.7,4.8-2.9l0.9-0.1
			L107.4,8.3z"/>
		<path d="M121.8,14.3H111c0.1,1.7,0.5,3,1.4,3.9c0.8,0.9,2,1.3,3.6,1.3c1.7,0,3.3-0.6,4.7-1.7l0.8,1.8c-0.6,0.6-1.5,1.1-2.5,1.4
			c-1,0.4-2,0.5-3.1,0.5c-2.3,0-4.1-0.7-5.4-2c-1.3-1.3-2-3.2-2-5.6c0-1.5,0.3-2.8,0.9-4c0.6-1.2,1.4-2.1,2.5-2.7
			c1.1-0.6,2.3-1,3.6-1c1.9,0,3.5,0.6,4.6,1.9c1.1,1.3,1.7,3,1.7,5.3V14.3z M112.5,9.3c-0.8,0.8-1.2,1.9-1.4,3.4h8.5
			c0-1.5-0.4-2.6-1.1-3.4c-0.7-0.8-1.7-1.2-3-1.2C114.3,8.1,113.2,8.5,112.5,9.3z"/>
		<path d="M138.3,0v21.2h-2.4v-2.7c-0.4,0.9-1.1,1.6-1.9,2.1c-0.9,0.5-1.9,0.8-3,0.8c-1.3,0-2.4-0.3-3.4-1c-1-0.6-1.7-1.5-2.3-2.7
			c-0.5-1.2-0.8-2.5-0.8-4c0-1.5,0.3-2.8,0.8-4c0.5-1.1,1.3-2,2.3-2.7c1-0.6,2.1-0.9,3.4-0.9c1.1,0,2.1,0.3,3,0.8
			c0.9,0.5,1.5,1.2,1.9,2.1V0H138.3z M134.7,18c0.8-1,1.2-2.4,1.2-4.1c0-1.8-0.4-3.2-1.2-4.1c-0.8-1-1.9-1.4-3.3-1.4
			c-1.4,0-2.5,0.5-3.3,1.4c-0.8,1-1.2,2.3-1.2,4.1c0,1.8,0.4,3.2,1.2,4.2c0.8,1,1.9,1.5,3.3,1.5C132.9,19.4,134,18.9,134.7,18z"/>
		<path d="M142.6,0.2h3V3h-3V0.2z M142.9,21.2V6.6h2.4v14.7H142.9z"/>
		<path d="M162.1,14.3h-10.7c0.1,1.7,0.5,3,1.4,3.9c0.8,0.9,2,1.3,3.6,1.3c1.7,0,3.3-0.6,4.7-1.7l0.8,1.8c-0.6,0.6-1.5,1.1-2.5,1.4
			c-1,0.4-2,0.5-3.1,0.5c-2.3,0-4.1-0.7-5.4-2c-1.3-1.3-2-3.2-2-5.6c0-1.5,0.3-2.8,0.9-4s1.4-2.1,2.5-2.7c1.1-0.6,2.3-1,3.6-1
			c1.9,0,3.5,0.6,4.6,1.9c1.1,1.3,1.7,3,1.7,5.3V14.3z M152.8,9.3c-0.8,0.8-1.2,1.9-1.4,3.4h8.5c0-1.5-0.4-2.6-1.1-3.4
			c-0.7-0.8-1.7-1.2-3-1.2C154.6,8.1,153.6,8.5,152.8,9.3z"/>
		<path d="M178.4,12v9.2h-2.4v-9.1c0-1.4-0.3-2.4-0.8-3c-0.5-0.6-1.4-0.9-2.5-0.9c-1.3,0-2.4,0.4-3.2,1.2c-0.8,0.8-1.2,1.9-1.2,3.3
			v8.4h-2.4V6.6h2.4V9c0.5-0.9,1.2-1.6,2-2.1c0.9-0.5,1.8-0.7,3-0.7C176.6,6.2,178.4,8.1,178.4,12z"/>
		<path d="M190.6,19.4l-0.1,1.9c-0.5,0.1-1,0.1-1.5,0.1c-1.8,0-3.1-0.5-4-1.4c-0.9-0.9-1.3-2.2-1.3-3.9V8.5h-2.9V6.6h2.9V2.1h2.4
			v4.5h4.2v1.9h-4.2V16c0,2.3,1.1,3.5,3.2,3.5C189.7,19.5,190.2,19.5,190.6,19.4z"/>
		<path d="M192.2,19.5l0.8-1.8c0.8,0.6,1.6,1.1,2.4,1.3c0.8,0.3,1.7,0.4,2.8,0.4c1.1,0,1.9-0.2,2.5-0.6c0.6-0.4,0.9-0.9,0.9-1.6
			c0-0.6-0.2-1-0.6-1.4c-0.4-0.3-1-0.6-1.9-0.8l-2.5-0.6c-1.2-0.3-2.2-0.8-2.9-1.4c-0.7-0.7-1-1.5-1-2.5c0-1.3,0.5-2.4,1.5-3.2
			c1-0.8,2.4-1.2,4.1-1.2c1,0,2,0.2,2.9,0.5c0.9,0.3,1.7,0.8,2.3,1.4l-0.8,1.8c-1.3-1.1-2.8-1.7-4.4-1.7c-1,0-1.8,0.2-2.4,0.6
			c-0.6,0.4-0.9,0.9-0.9,1.6c0,0.6,0.2,1.1,0.5,1.4c0.4,0.4,0.9,0.6,1.7,0.8l2.5,0.6c1.4,0.3,2.4,0.8,3,1.5c0.7,0.7,1,1.5,1,2.5
			c0,1.3-0.5,2.3-1.6,3.1c-1,0.8-2.4,1.1-4.2,1.1C195.6,21.4,193.6,20.8,192.2,19.5z"/>
		<path d="M0,57.4V36.1h2.5v19.1h10.6v2.1H0z"/>
		<path d="M15.7,36.3h3v2.7h-3V36.3z M15.9,57.4V42.7h2.4v14.7H15.9z"/>
		<path d="M35.9,42.7v20.1h-2.4v-8.1c-0.4,0.9-1.1,1.6-1.9,2.1c-0.9,0.5-1.9,0.8-3,0.8c-1.3,0-2.4-0.3-3.4-0.9
			c-1-0.6-1.7-1.5-2.3-2.6c-0.5-1.1-0.8-2.5-0.8-4s0.3-2.9,0.8-4c0.5-1.2,1.3-2.1,2.3-2.7c1-0.6,2.1-1,3.4-1c1.1,0,2.1,0.3,3,0.8
			c0.9,0.5,1.5,1.2,1.9,2.1v-2.5H35.9z M32.3,54.1c0.8-1,1.2-2.4,1.2-4.1s-0.4-3.2-1.2-4.1c-0.8-1-1.9-1.4-3.3-1.4s-2.5,0.5-3.3,1.5
			c-0.8,1-1.2,2.4-1.2,4.1c0,1.8,0.4,3.1,1.2,4.1c0.8,1,1.9,1.4,3.3,1.4S31.5,55.1,32.3,54.1z"/>
		<path d="M52.8,42.7v14.7h-2.4v-2.5c-0.5,0.9-1.1,1.6-1.9,2c-0.8,0.5-1.8,0.7-2.8,0.7c-1.7,0-3.1-0.5-3.9-1.5
			c-0.9-1-1.3-2.4-1.3-4.3v-9.1h2.4v9c0,1.3,0.3,2.3,0.8,2.9c0.5,0.6,1.3,0.9,2.5,0.9c1.3,0,2.3-0.4,3.1-1.2
			c0.8-0.8,1.2-1.9,1.2-3.3v-8.3H52.8z"/>
		<path d="M57.1,36.3h3v2.7h-3V36.3z M57.3,57.4V42.7h2.4v14.7H57.3z"/>
		<path d="M77.3,36.1v21.2h-2.4v-2.7c-0.4,0.9-1.1,1.6-1.9,2.1c-0.9,0.5-1.9,0.8-3,0.8c-1.3,0-2.4-0.3-3.4-1c-1-0.6-1.7-1.5-2.3-2.7
			c-0.5-1.2-0.8-2.5-0.8-4c0-1.5,0.3-2.8,0.8-4c0.5-1.1,1.3-2,2.3-2.6c1-0.6,2.1-0.9,3.4-0.9c1.1,0,2.1,0.3,3,0.8
			c0.9,0.5,1.5,1.2,1.9,2.1v-9.1H77.3z M73.7,54.1c0.8-1,1.2-2.4,1.2-4.1s-0.4-3.2-1.2-4.1c-0.8-1-1.9-1.4-3.3-1.4
			c-1.4,0-2.5,0.5-3.3,1.4c-0.8,1-1.2,2.3-1.2,4.1c0,1.8,0.4,3.2,1.2,4.2c0.8,1,1.9,1.5,3.3,1.5C71.8,55.6,72.9,55.1,73.7,54.1z"/>
		<path d="M90,57.4V36.1h2.5v21.2H90z"/>
		<path d="M109.9,48.2v9.2h-2.4v-9.1c0-1.4-0.3-2.4-0.8-3c-0.5-0.6-1.4-0.9-2.5-0.9c-1.3,0-2.4,0.4-3.2,1.2
			c-0.8,0.8-1.2,1.9-1.2,3.3v8.4h-2.4V42.7h2.4v2.4c0.5-0.9,1.2-1.6,2-2.1c0.9-0.5,1.8-0.7,3-0.7C108.2,42.3,109.9,44.3,109.9,48.2z
			"/>
		<path d="M127.5,42.7v13.7c0,2.2-0.6,3.8-1.7,5c-1.1,1.1-2.8,1.7-5,1.7c-2.6,0-4.7-0.7-6.5-2l0.8-1.8c1,0.6,1.9,1.1,2.8,1.4
			c0.9,0.3,1.8,0.4,2.9,0.4c1.4,0,2.5-0.4,3.2-1.1c0.7-0.8,1.1-1.9,1.1-3.3V54c-0.4,0.9-1.1,1.7-1.9,2.2c-0.9,0.5-1.9,0.8-3.1,0.8
			c-1.3,0-2.4-0.3-3.4-0.9c-1-0.6-1.8-1.5-2.3-2.6c-0.6-1.1-0.8-2.4-0.8-3.8c0-1.4,0.3-2.7,0.8-3.8c0.6-1.1,1.3-2,2.3-2.6
			c1-0.6,2.1-0.9,3.4-0.9c1.2,0,2.2,0.3,3,0.8c0.9,0.5,1.5,1.2,2,2.1v-2.5H127.5z M123.9,53.5c0.8-0.9,1.2-2.2,1.2-3.9
			c0-1.6-0.4-2.9-1.2-3.8c-0.8-0.9-1.9-1.4-3.3-1.4s-2.5,0.5-3.4,1.4c-0.8,0.9-1.2,2.2-1.2,3.8c0,1.6,0.4,2.9,1.2,3.9
			c0.8,0.9,1.9,1.4,3.4,1.4C122,54.9,123.1,54.4,123.9,53.5z"/>
		<path d="M140.4,44.4l-1.6,0.2c-1.5,0.1-2.6,0.6-3.3,1.4c-0.7,0.8-1,1.8-1,3v8.4h-2.4V42.7h2.4v2.6c0.8-1.7,2.4-2.7,4.8-2.9
			l0.9-0.1L140.4,44.4z"/>
		<path d="M154.7,50.4h-10.7c0.1,1.7,0.5,3,1.4,3.9c0.8,0.9,2,1.3,3.6,1.3c1.7,0,3.3-0.6,4.7-1.7l0.8,1.8c-0.6,0.6-1.5,1.1-2.5,1.4
			c-1,0.4-2,0.5-3.1,0.5c-2.3,0-4.1-0.7-5.4-2c-1.3-1.3-2-3.2-2-5.6c0-1.5,0.3-2.8,0.9-4c0.6-1.2,1.4-2.1,2.5-2.7
			c1.1-0.6,2.3-1,3.6-1c1.9,0,3.5,0.6,4.6,1.9c1.1,1.3,1.7,3,1.7,5.3V50.4z M145.4,45.4c-0.8,0.8-1.2,1.9-1.4,3.4h8.5
			c0-1.5-0.4-2.6-1.1-3.4c-0.7-0.8-1.7-1.2-3-1.2C147.2,44.2,146.1,44.6,145.4,45.4z"/>
		<path d="M171.3,36.1v21.2h-2.4v-2.7c-0.4,0.9-1.1,1.6-1.9,2.1c-0.9,0.5-1.9,0.8-3,0.8c-1.3,0-2.4-0.3-3.4-1
			c-1-0.6-1.7-1.5-2.3-2.7c-0.5-1.2-0.8-2.5-0.8-4c0-1.5,0.3-2.8,0.8-4c0.5-1.1,1.3-2,2.3-2.6c1-0.6,2.1-0.9,3.4-0.9
			c1.1,0,2.1,0.3,3,0.8c0.9,0.5,1.5,1.2,1.9,2.1v-9.1H171.3z M167.7,54.1c0.8-1,1.2-2.4,1.2-4.1s-0.4-3.2-1.2-4.1
			c-0.8-1-1.9-1.4-3.3-1.4c-1.4,0-2.5,0.5-3.3,1.4c-0.8,1-1.2,2.3-1.2,4.1c0,1.8,0.4,3.2,1.2,4.2c0.8,1,1.9,1.5,3.3,1.5
			C165.8,55.6,166.9,55.1,167.7,54.1z"/>
		<path d="M175.5,36.3h3v2.7h-3V36.3z M175.8,57.4V42.7h2.4v14.7H175.8z"/>
		<path d="M195,50.4h-10.7c0.1,1.7,0.5,3,1.4,3.9c0.8,0.9,2,1.3,3.6,1.3c1.7,0,3.3-0.6,4.7-1.7l0.8,1.8c-0.6,0.6-1.5,1.1-2.5,1.4
			c-1,0.4-2,0.5-3.1,0.5c-2.3,0-4.1-0.7-5.4-2c-1.3-1.3-2-3.2-2-5.6c0-1.5,0.3-2.8,0.9-4c0.6-1.2,1.4-2.1,2.5-2.7
			c1.1-0.6,2.3-1,3.6-1c1.9,0,3.5,0.6,4.6,1.9c1.1,1.3,1.7,3,1.7,5.3V50.4z M185.8,45.4c-0.8,0.8-1.2,1.9-1.4,3.4h8.5
			c0-1.5-0.4-2.6-1.1-3.4c-0.7-0.8-1.7-1.2-3-1.2C187.6,44.2,186.5,44.6,185.8,45.4z"/>
		<path d="M211.3,48.2v9.2h-2.4v-9.1c0-1.4-0.3-2.4-0.8-3c-0.5-0.6-1.4-0.9-2.5-0.9c-1.3,0-2.4,0.4-3.2,1.2
			c-0.8,0.8-1.2,1.9-1.2,3.3v8.4h-2.4V42.7h2.4v2.4c0.5-0.9,1.2-1.6,2-2.1c0.9-0.5,1.8-0.7,3-0.7C209.5,42.3,211.3,44.3,211.3,48.2z
			"/>
		<path d="M223.5,55.5l-0.1,1.9c-0.5,0.1-1,0.1-1.5,0.1c-1.8,0-3.1-0.5-4-1.4c-0.9-0.9-1.3-2.2-1.3-3.9v-7.7h-2.9v-1.9h2.9v-4.5h2.4
			v4.5h4.2v1.9H219v7.5c0,2.3,1.1,3.5,3.2,3.5C222.6,55.6,223.1,55.6,223.5,55.5z"/>
		<path d="M225.1,55.7l0.8-1.8c0.8,0.6,1.6,1.1,2.4,1.3c0.8,0.3,1.7,0.4,2.8,0.4c1.1,0,1.9-0.2,2.5-0.6c0.6-0.4,0.9-0.9,0.9-1.6
			c0-0.6-0.2-1-0.6-1.4c-0.4-0.3-1-0.6-1.9-0.8l-2.5-0.6c-1.2-0.3-2.2-0.8-2.9-1.4c-0.7-0.7-1-1.5-1-2.5c0-1.3,0.5-2.4,1.5-3.2
			c1-0.8,2.4-1.2,4.1-1.2c1,0,2,0.2,2.9,0.5c0.9,0.3,1.7,0.8,2.3,1.4l-0.8,1.8c-1.3-1.1-2.8-1.7-4.4-1.7c-1,0-1.8,0.2-2.4,0.6
			c-0.6,0.4-0.9,0.9-0.9,1.6c0,0.6,0.2,1.1,0.5,1.4c0.4,0.4,0.9,0.6,1.7,0.8l2.5,0.6c1.4,0.3,2.4,0.8,3,1.5c0.7,0.7,1,1.5,1,2.5
			c0,1.3-0.5,2.3-1.6,3.1s-2.4,1.1-4.2,1.1C228.5,57.6,226.5,56.9,225.1,55.7z"/>
	</g>
	<g>
		<path d="M787.6,36.6l0.9-1.8c1,0.8,2,1.4,3,1.8c1,0.4,2.2,0.5,3.5,0.5c1.6,0,2.8-0.3,3.7-0.9c0.9-0.6,1.3-1.5,1.3-2.6
			c0-0.7-0.2-1.2-0.6-1.6c-0.4-0.4-1-0.7-1.6-1c-0.7-0.2-1.6-0.5-2.7-0.8c-1.5-0.4-2.8-0.7-3.8-1.1c-1-0.4-1.8-1-2.4-1.7
			c-0.6-0.7-0.9-1.7-0.9-2.9c0-1.1,0.3-2.1,0.9-3s1.4-1.5,2.5-2c1.1-0.5,2.4-0.7,3.8-0.7c1.4,0,2.6,0.2,3.8,0.6c1.2,0.4,2.2,1,3,1.8
			l-0.9,1.8c-0.9-0.8-1.9-1.4-2.8-1.8c-1-0.4-2-0.5-3.1-0.5c-1.5,0-2.7,0.3-3.6,1c-0.9,0.6-1.3,1.5-1.3,2.7c0,1,0.4,1.7,1.1,2.2
			c0.8,0.5,1.9,0.9,3.5,1.3c1.7,0.4,3,0.8,4,1.1c1,0.3,1.8,0.9,2.4,1.6c0.6,0.7,1,1.6,1,2.8c0,1.1-0.3,2.1-0.9,2.9
			c-0.6,0.8-1.4,1.5-2.5,1.9c-1.1,0.5-2.4,0.7-3.9,0.7C791.9,39.1,789.4,38.3,787.6,36.6z"/>
		<path d="M812.8,37.2l-0.1,1.8c-0.4,0.1-0.9,0.1-1.4,0.1c-1.6,0-2.9-0.4-3.7-1.3c-0.8-0.9-1.2-2.1-1.2-3.6V27h-2.7v-1.8h2.7v-4.1
			h2.3v4.1h3.9V27h-3.9v7c0,2.1,1,3.2,3,3.2C811.9,37.2,812.4,37.2,812.8,37.2z"/>
		<path d="M817.3,38.2c-1-0.6-1.7-1.4-2.3-2.5c-0.5-1.1-0.8-2.3-0.8-3.7c0-1.4,0.3-2.7,0.8-3.7c0.5-1.1,1.3-1.9,2.3-2.5
			c1-0.6,2.1-0.9,3.4-0.9c1.3,0,2.4,0.3,3.4,0.9c1,0.6,1.8,1.4,2.3,2.5c0.5,1.1,0.8,2.3,0.8,3.7c0,1.4-0.3,2.7-0.8,3.7
			c-0.5,1.1-1.3,1.9-2.3,2.5c-1,0.6-2.1,0.9-3.4,0.9C819.4,39.1,818.3,38.8,817.3,38.2z M823.8,35.9c0.7-0.9,1.1-2.2,1.1-3.9
			c0-1.7-0.4-2.9-1.1-3.8c-0.7-0.9-1.8-1.4-3.1-1.4c-1.3,0-2.4,0.5-3.1,1.4c-0.7,0.9-1.1,2.2-1.1,3.8c0,1.7,0.4,3,1.1,3.9
			c0.7,0.9,1.8,1.3,3.1,1.3S823.1,36.7,823.8,35.9z"/>
		<path d="M838.3,26.9l-1.5,0.1c-1.4,0.1-2.4,0.6-3,1.3c-0.6,0.7-0.9,1.7-0.9,2.8v7.8h-2.3V25.2h2.2v2.4c0.8-1.6,2.3-2.5,4.5-2.7
			l0.8-0.1L838.3,26.9z"/>
		<path d="M849.8,26.2c0.8,0.9,1.3,2.2,1.3,4v8.6h-2.2v-2.3c-0.4,0.8-0.9,1.4-1.6,1.9c-0.7,0.4-1.6,0.7-2.5,0.7
			c-0.9,0-1.7-0.2-2.4-0.5c-0.7-0.4-1.3-0.8-1.8-1.5c-0.4-0.6-0.6-1.3-0.6-2.1c0-1,0.3-1.8,0.8-2.4c0.5-0.6,1.4-1,2.6-1.2
			c1.2-0.3,2.9-0.4,5-0.4h0.6V30c0-1.1-0.2-2-0.7-2.5c-0.5-0.5-1.2-0.8-2.3-0.8c-1.6,0-3.1,0.5-4.7,1.5l-0.8-1.7
			c0.7-0.5,1.6-0.9,2.6-1.2c1-0.3,2-0.5,2.9-0.5C847.7,24.9,848.9,25.3,849.8,26.2z M847.8,36.1c0.7-0.8,1.1-1.7,1.1-2.9v-0.8h-0.5
			c-1.6,0-2.9,0.1-3.8,0.2c-0.9,0.1-1.5,0.4-1.8,0.7c-0.4,0.3-0.5,0.8-0.5,1.4c0,0.7,0.3,1.3,0.8,1.8c0.5,0.5,1.2,0.7,2,0.7
			C846.1,37.3,847.1,36.9,847.8,36.1z"/>
		<path d="M867.4,25.2v12.7c0,2-0.5,3.6-1.6,4.6c-1,1-2.6,1.6-4.6,1.6c-2.4,0-4.4-0.6-6-1.8l0.8-1.7c0.9,0.6,1.8,1,2.6,1.3
			c0.8,0.3,1.7,0.4,2.7,0.4c1.3,0,2.3-0.4,3-1.1c0.7-0.7,1-1.7,1-3.1v-2.4c-0.4,0.9-1,1.5-1.8,2c-0.8,0.5-1.8,0.7-2.9,0.7
			c-1.2,0-2.3-0.3-3.2-0.8c-0.9-0.6-1.6-1.4-2.2-2.4c-0.5-1-0.8-2.2-0.8-3.6s0.3-2.5,0.8-3.6c0.5-1,1.2-1.8,2.2-2.4
			c0.9-0.6,2-0.8,3.2-0.8c1.1,0,2,0.2,2.8,0.7c0.8,0.5,1.4,1.1,1.8,2v-2.4H867.4z M864,35.3c0.7-0.9,1.1-2.1,1.1-3.6
			c0-1.5-0.4-2.7-1.1-3.6c-0.7-0.9-1.8-1.3-3.1-1.3c-1.3,0-2.4,0.4-3.1,1.3s-1.1,2.1-1.1,3.6c0,1.5,0.4,2.7,1.1,3.6s1.8,1.3,3.1,1.3
			C862.3,36.6,863.3,36.1,864,35.3z"/>
		<path d="M883,32.4h-10c0.1,1.6,0.5,2.8,1.3,3.6c0.8,0.8,1.9,1.2,3.3,1.2c1.6,0,3-0.5,4.4-1.6l0.8,1.7c-0.6,0.6-1.4,1-2.3,1.3
			c-0.9,0.3-1.9,0.5-2.9,0.5c-2.1,0-3.8-0.6-5-1.9s-1.8-3-1.8-5.2c0-1.4,0.3-2.6,0.8-3.7c0.5-1.1,1.3-1.9,2.3-2.5
			c1-0.6,2.1-0.9,3.3-0.9c1.8,0,3.2,0.6,4.3,1.8c1,1.2,1.5,2.8,1.5,4.9V32.4z M874.4,27.8c-0.7,0.7-1.1,1.8-1.3,3.2h7.9
			c0-1.4-0.4-2.4-1-3.2c-0.7-0.7-1.6-1.1-2.7-1.1C876.1,26.7,875.1,27,874.4,27.8z"/>
		<path d="M908.4,19.1h2.4l-8.6,19.7h-2l-8.6-19.7h2.4l7.2,16.9L908.4,19.1z"/>
		<path d="M922.8,32.4h-10c0.1,1.6,0.5,2.8,1.3,3.6c0.8,0.8,1.9,1.2,3.3,1.2c1.6,0,3-0.5,4.4-1.6l0.8,1.7c-0.6,0.6-1.4,1-2.3,1.3
			c-0.9,0.3-1.9,0.5-2.9,0.5c-2.1,0-3.8-0.6-5-1.9c-1.2-1.3-1.8-3-1.8-5.2c0-1.4,0.3-2.6,0.8-3.7c0.5-1.1,1.3-1.9,2.3-2.5
			c1-0.6,2.1-0.9,3.3-0.9c1.8,0,3.2,0.6,4.3,1.8c1,1.2,1.5,2.8,1.5,4.9V32.4z M914.2,27.8c-0.7,0.7-1.1,1.8-1.3,3.2h7.9
			c0-1.4-0.4-2.4-1-3.2c-0.7-0.7-1.6-1.1-2.7-1.1C915.8,26.7,914.9,27,914.2,27.8z"/>
		<path d="M925.3,37.3l0.8-1.7c0.7,0.6,1.5,1,2.2,1.2c0.8,0.3,1.6,0.4,2.6,0.4c1,0,1.8-0.2,2.3-0.5c0.5-0.3,0.8-0.8,0.8-1.5
			c0-0.5-0.2-1-0.5-1.3c-0.4-0.3-0.9-0.6-1.8-0.8l-2.3-0.5c-1.2-0.3-2-0.7-2.7-1.3c-0.6-0.6-0.9-1.4-0.9-2.4c0-1.2,0.5-2.2,1.4-2.9
			c1-0.7,2.2-1.1,3.8-1.1c1,0,1.9,0.2,2.7,0.5c0.9,0.3,1.6,0.8,2.2,1.3l-0.8,1.7c-1.3-1.1-2.6-1.6-4.1-1.6c-1,0-1.7,0.2-2.2,0.5
			s-0.8,0.9-0.8,1.5c0,0.5,0.2,1,0.5,1.3c0.3,0.3,0.9,0.6,1.6,0.7l2.3,0.6c1.3,0.3,2.2,0.8,2.8,1.4c0.6,0.6,0.9,1.4,0.9,2.4
			c0,1.2-0.5,2.1-1.4,2.9s-2.3,1.1-3.9,1.1C928.5,39.1,926.6,38.5,925.3,37.3z"/>
		<path d="M938.7,37.3l0.8-1.7c0.7,0.6,1.5,1,2.2,1.2c0.8,0.3,1.6,0.4,2.6,0.4c1,0,1.8-0.2,2.3-0.5c0.5-0.3,0.8-0.8,0.8-1.5
			c0-0.5-0.2-1-0.5-1.3c-0.4-0.3-0.9-0.6-1.8-0.8l-2.3-0.5c-1.2-0.3-2-0.7-2.7-1.3c-0.6-0.6-0.9-1.4-0.9-2.4c0-1.2,0.5-2.2,1.4-2.9
			c1-0.7,2.2-1.1,3.8-1.1c1,0,1.9,0.2,2.7,0.5c0.9,0.3,1.6,0.8,2.2,1.3l-0.8,1.7c-1.2-1.1-2.6-1.6-4.1-1.6c-1,0-1.7,0.2-2.2,0.5
			c-0.5,0.4-0.8,0.9-0.8,1.5c0,0.5,0.2,1,0.5,1.3c0.3,0.3,0.9,0.6,1.6,0.7l2.3,0.6c1.3,0.3,2.2,0.8,2.8,1.4c0.6,0.6,0.9,1.4,0.9,2.4
			c0,1.2-0.5,2.1-1.4,2.9s-2.3,1.1-3.9,1.1C941.9,39.1,940.1,38.5,938.7,37.3z"/>
		<path d="M964.4,32.4h-10c0.1,1.6,0.5,2.8,1.3,3.6c0.8,0.8,1.9,1.2,3.3,1.2c1.6,0,3-0.5,4.4-1.6l0.8,1.7c-0.6,0.6-1.4,1-2.3,1.3
			c-0.9,0.3-1.9,0.5-2.9,0.5c-2.1,0-3.8-0.6-5-1.9c-1.2-1.3-1.8-3-1.8-5.2c0-1.4,0.3-2.6,0.8-3.7c0.5-1.1,1.3-1.9,2.3-2.5
			c1-0.6,2.1-0.9,3.3-0.9c1.8,0,3.2,0.6,4.3,1.8c1,1.2,1.5,2.8,1.5,4.9V32.4z M955.8,27.8c-0.7,0.7-1.1,1.8-1.3,3.2h7.9
			c0-1.4-0.4-2.4-1-3.2c-0.7-0.7-1.6-1.1-2.7-1.1C957.5,26.7,956.5,27,955.8,27.8z"/>
		<path d="M967.8,38.9V19.1h2.3v19.7H967.8z"/>
		<path d="M973.4,37.3l0.8-1.7c0.7,0.6,1.5,1,2.2,1.2c0.8,0.3,1.6,0.4,2.6,0.4c1,0,1.8-0.2,2.3-0.5c0.5-0.3,0.8-0.8,0.8-1.5
			c0-0.5-0.2-1-0.5-1.3c-0.4-0.3-0.9-0.6-1.8-0.8l-2.3-0.5c-1.2-0.3-2-0.7-2.7-1.3c-0.6-0.6-0.9-1.4-0.9-2.4c0-1.2,0.5-2.2,1.4-2.9
			c1-0.7,2.2-1.1,3.8-1.1c1,0,1.9,0.2,2.7,0.5c0.9,0.3,1.6,0.8,2.2,1.3l-0.8,1.7c-1.3-1.1-2.6-1.6-4.1-1.6c-1,0-1.7,0.2-2.2,0.5
			s-0.8,0.9-0.8,1.5c0,0.5,0.2,1,0.5,1.3c0.3,0.3,0.9,0.6,1.6,0.7l2.3,0.6c1.3,0.3,2.2,0.8,2.8,1.4c0.6,0.6,0.9,1.4,0.9,2.4
			c0,1.2-0.5,2.1-1.4,2.9s-2.3,1.1-3.9,1.1C976.6,39.1,974.8,38.5,973.4,37.3z"/>
	</g>
	<g>
		<path d="M1017.9,38.8V18.9h12.3v1.9h-10v6.9h9.5v1.9h-9.5v9.2H1017.9z"/>
		<path d="M1033,19.1h2.8v2.6h-2.8V19.1z M1033.3,38.8V25.1h2.3v13.8H1033.3z"/>
		<path d="M1039.8,38.8V18.9h2.3v19.9H1039.8z"/>
		<path d="M1046.4,38.8V18.9h2.3v19.9H1046.4z"/>
		<path d="M1052.7,19.1h2.8v2.6h-2.8V19.1z M1052.9,38.8V25.1h2.3v13.8H1052.9z"/>
		<path d="M1071.3,30.2v8.6h-2.3v-8.5c0-1.3-0.3-2.2-0.7-2.8c-0.5-0.6-1.3-0.9-2.4-0.9c-1.3,0-2.3,0.4-3,1.2
			c-0.8,0.8-1.1,1.8-1.1,3.1v7.9h-2.3V25.1h2.3v2.3c0.5-0.8,1.1-1.5,1.9-1.9c0.8-0.4,1.7-0.7,2.8-0.7
			C1069.7,24.7,1071.3,26.5,1071.3,30.2z"/>
		<path d="M1087.8,25.1v12.8c0,2.1-0.5,3.6-1.6,4.6c-1.1,1-2.6,1.6-4.7,1.6c-2.4,0-4.4-0.6-6.1-1.9l0.8-1.7c0.9,0.6,1.8,1,2.6,1.3
			c0.8,0.3,1.7,0.4,2.7,0.4c1.3,0,2.3-0.4,3-1.1c0.7-0.7,1-1.7,1-3.1v-2.4c-0.4,0.9-1,1.6-1.8,2c-0.8,0.5-1.8,0.7-2.9,0.7
			c-1.2,0-2.3-0.3-3.2-0.8c-0.9-0.6-1.7-1.4-2.2-2.4c-0.5-1-0.8-2.2-0.8-3.6c0-1.4,0.3-2.6,0.8-3.6c0.5-1,1.2-1.8,2.2-2.4
			c0.9-0.6,2-0.8,3.2-0.8c1.1,0,2,0.2,2.9,0.7c0.8,0.5,1.4,1.1,1.8,2v-2.4H1087.8z M1084.4,35.2c0.8-0.9,1.1-2.1,1.1-3.6
			c0-1.5-0.4-2.7-1.1-3.6s-1.8-1.3-3.1-1.3c-1.3,0-2.4,0.4-3.1,1.3s-1.1,2.1-1.1,3.6c0,1.5,0.4,2.8,1.1,3.6s1.8,1.3,3.1,1.3
			C1082.6,36.5,1083.7,36.1,1084.4,35.2z"/>
		<path d="M1116.6,18.9h1.9v19.9h-2.1l0-15.4l-6.5,12.3h-1.6l-6.5-12.1l0,15.3h-2.1V18.9h1.9l7.5,14.4L1116.6,18.9z"/>
		<path d="M1132.6,26.1c0.9,0.9,1.3,2.3,1.3,4.1v8.7h-2.2v-2.3c-0.4,0.8-0.9,1.4-1.6,1.9c-0.7,0.4-1.6,0.7-2.5,0.7
			c-0.9,0-1.7-0.2-2.4-0.5c-0.7-0.4-1.3-0.9-1.8-1.5c-0.4-0.6-0.7-1.3-0.7-2.1c0-1,0.3-1.8,0.8-2.4c0.5-0.6,1.4-1,2.6-1.2
			c1.2-0.3,2.9-0.4,5-0.4h0.6v-0.9c0-1.1-0.2-2-0.7-2.5c-0.5-0.5-1.2-0.8-2.3-0.8c-1.6,0-3.2,0.5-4.7,1.5l-0.8-1.7
			c0.7-0.5,1.6-0.9,2.6-1.2c1-0.3,2-0.5,2.9-0.5C1130.5,24.7,1131.8,25.2,1132.6,26.1z M1130.6,36.1c0.7-0.8,1.1-1.7,1.1-3v-0.8
			h-0.5c-1.7,0-2.9,0.1-3.8,0.2c-0.9,0.1-1.5,0.4-1.9,0.7c-0.4,0.3-0.5,0.8-0.5,1.5c0,0.7,0.3,1.3,0.8,1.8c0.5,0.5,1.2,0.7,2,0.7
			C1129,37.2,1129.9,36.8,1130.6,36.1z"/>
		<path d="M1140.4,38.1c-1-0.6-1.8-1.4-2.3-2.5c-0.5-1.1-0.8-2.3-0.8-3.7c0-1.4,0.3-2.7,0.8-3.8c0.6-1.1,1.3-1.9,2.3-2.5
			c1-0.6,2.2-0.9,3.5-0.9c0.9,0,1.8,0.2,2.7,0.5c0.9,0.3,1.6,0.8,2.1,1.3l-0.8,1.7c-1.3-1.1-2.6-1.6-4-1.6c-1.4,0-2.5,0.5-3.3,1.4
			c-0.8,0.9-1.2,2.2-1.2,3.9c0,1.7,0.4,2.9,1.2,3.8s1.9,1.4,3.3,1.4c1.3,0,2.7-0.5,4-1.6l0.8,1.7c-0.6,0.5-1.3,1-2.2,1.3
			c-0.9,0.3-1.8,0.5-2.7,0.5C1142.6,39,1141.4,38.7,1140.4,38.1z"/>
		<path d="M1163.5,30.2v8.6h-2.3v-8.5c0-1.3-0.2-2.2-0.7-2.8c-0.5-0.6-1.3-0.9-2.4-0.9c-1.3,0-2.3,0.4-3,1.2
			c-0.8,0.8-1.1,1.8-1.1,3.1v7.9h-2.3V18.9h2.3v8.4c0.5-0.8,1.1-1.5,1.9-1.9c0.8-0.4,1.7-0.7,2.8-0.7
			C1161.9,24.7,1163.5,26.5,1163.5,30.2z"/>
		<path d="M1167.5,19.1h2.8v2.6h-2.8V19.1z M1167.7,38.8V25.1h2.3v13.8H1167.7z"/>
		<path d="M1186.1,30.2v8.6h-2.3v-8.5c0-1.3-0.2-2.2-0.7-2.8c-0.5-0.6-1.3-0.9-2.4-0.9c-1.3,0-2.3,0.4-3,1.2
			c-0.8,0.8-1.1,1.8-1.1,3.1v7.9h-2.3V25.1h2.3v2.3c0.5-0.8,1.1-1.5,1.9-1.9c0.8-0.4,1.7-0.7,2.8-0.7
			C1184.5,24.7,1186.1,26.5,1186.1,30.2z"/>
		<path d="M1201.8,32.3h-10.1c0.1,1.6,0.5,2.8,1.3,3.6c0.8,0.8,1.9,1.2,3.4,1.2c1.6,0,3.1-0.5,4.4-1.6l0.8,1.7
			c-0.6,0.6-1.4,1-2.3,1.3c-0.9,0.3-1.9,0.5-2.9,0.5c-2.1,0-3.8-0.6-5.1-1.9c-1.2-1.3-1.8-3-1.8-5.2c0-1.4,0.3-2.7,0.8-3.7
			c0.5-1.1,1.3-1.9,2.3-2.5c1-0.6,2.1-0.9,3.4-0.9c1.8,0,3.3,0.6,4.3,1.8c1,1.2,1.6,2.8,1.6,4.9V32.3z M1193.1,27.6
			c-0.7,0.8-1.2,1.8-1.3,3.2h8c0-1.4-0.4-2.5-1-3.2c-0.7-0.7-1.6-1.1-2.8-1.1C1194.8,26.5,1193.8,26.9,1193.1,27.6z"/>
	</g>
	<g>
		<path d="M287.3,18.9h1.9v19.9H287l0-15.4l-6.5,12.3h-1.6l-6.5-12.1l0,15.3h-2.1V18.9h1.9l7.5,14.4L287.3,18.9z"/>
		<path d="M305.3,32.3h-10.1c0.1,1.6,0.5,2.8,1.3,3.6c0.8,0.8,1.9,1.2,3.4,1.2c1.6,0,3.1-0.5,4.4-1.6l0.8,1.7
			c-0.6,0.6-1.4,1-2.3,1.3c-0.9,0.3-1.9,0.5-2.9,0.5c-2.1,0-3.8-0.6-5.1-1.9c-1.2-1.3-1.9-3-1.9-5.2c0-1.4,0.3-2.7,0.8-3.7
			s1.3-1.9,2.3-2.5c1-0.6,2.1-0.9,3.4-0.9c1.8,0,3.3,0.6,4.3,1.8c1,1.2,1.6,2.8,1.6,4.9V32.3z M296.6,27.6c-0.7,0.8-1.2,1.8-1.3,3.2
			h8c0-1.4-0.4-2.5-1-3.2c-0.7-0.7-1.6-1.1-2.8-1.1C298.3,26.5,297.3,26.9,296.6,27.6z"/>
		<path d="M318.1,26.1c0.9,0.9,1.3,2.3,1.3,4.1v8.7h-2.2v-2.3c-0.4,0.8-0.9,1.4-1.6,1.9c-0.7,0.4-1.6,0.7-2.5,0.7
			c-0.9,0-1.7-0.2-2.4-0.5c-0.7-0.4-1.3-0.9-1.8-1.5c-0.4-0.6-0.7-1.3-0.7-2.1c0-1,0.3-1.8,0.8-2.4c0.5-0.6,1.4-1,2.6-1.2
			c1.2-0.3,2.9-0.4,5-0.4h0.6v-0.9c0-1.1-0.2-2-0.7-2.5c-0.5-0.5-1.2-0.8-2.3-0.8c-1.6,0-3.2,0.5-4.7,1.5l-0.8-1.7
			c0.7-0.5,1.6-0.9,2.6-1.2c1-0.3,2-0.5,2.9-0.5C316,24.7,317.3,25.2,318.1,26.1z M316.1,36.1c0.7-0.8,1.1-1.7,1.1-3v-0.8h-0.5
			c-1.7,0-2.9,0.1-3.8,0.2c-0.9,0.1-1.5,0.4-1.9,0.7c-0.4,0.3-0.6,0.8-0.6,1.5c0,0.7,0.3,1.3,0.8,1.8c0.5,0.5,1.2,0.7,2,0.7
			C314.5,37.2,315.4,36.8,316.1,36.1z"/>
		<path d="M322.8,37.2l0.8-1.7c0.7,0.6,1.5,1,2.2,1.3c0.8,0.3,1.6,0.4,2.6,0.4c1,0,1.8-0.2,2.3-0.5c0.5-0.3,0.8-0.9,0.8-1.5
			c0-0.5-0.2-1-0.5-1.3c-0.4-0.3-1-0.6-1.8-0.8l-2.3-0.5c-1.2-0.3-2.1-0.7-2.7-1.4c-0.6-0.6-0.9-1.4-0.9-2.4c0-1.2,0.5-2.2,1.4-3
			c1-0.8,2.2-1.1,3.8-1.1c1,0,1.9,0.2,2.7,0.5c0.9,0.3,1.6,0.8,2.2,1.3l-0.8,1.7c-1.3-1.1-2.6-1.6-4.2-1.6c-1,0-1.7,0.2-2.2,0.6
			c-0.5,0.4-0.8,0.9-0.8,1.5c0,0.5,0.2,1,0.5,1.3c0.3,0.3,0.9,0.6,1.6,0.7l2.3,0.6c1.3,0.3,2.2,0.8,2.9,1.4c0.6,0.6,0.9,1.4,0.9,2.4
			c0,1.2-0.5,2.2-1.5,2.9c-1,0.7-2.3,1.1-4,1.1C326,39,324.1,38.4,322.8,37.2z"/>
		<path d="M348.8,25.1v13.8h-2.2v-2.3c-0.4,0.8-1,1.5-1.8,1.9c-0.8,0.4-1.7,0.6-2.6,0.6c-1.6,0-2.9-0.5-3.7-1.4
			c-0.8-0.9-1.2-2.3-1.2-4.1v-8.5h2.3v8.5c0,1.2,0.2,2.1,0.7,2.7c0.5,0.6,1.3,0.9,2.3,0.9c1.2,0,2.2-0.4,2.9-1.2
			c0.7-0.8,1.1-1.8,1.1-3.1v-7.8H348.8z"/>
		<path d="M360.8,26.7l-1.5,0.1c-1.4,0.1-2.4,0.6-3.1,1.3c-0.6,0.8-0.9,1.7-0.9,2.8v7.9H353V25.1h2.2v2.4c0.8-1.6,2.3-2.5,4.5-2.7
			l0.8-0.1L360.8,26.7z"/>
		<path d="M362.8,19.1h2.8v2.6h-2.8V19.1z M363,38.8V25.1h2.3v13.8H363z"/>
		<path d="M381.4,30.2v8.6h-2.3v-8.5c0-1.3-0.2-2.2-0.7-2.8c-0.5-0.6-1.3-0.9-2.4-0.9c-1.3,0-2.3,0.4-3,1.2
			c-0.8,0.8-1.1,1.8-1.1,3.1v7.9h-2.3V25.1h2.3v2.3c0.5-0.8,1.1-1.5,1.9-1.9c0.8-0.4,1.7-0.7,2.8-0.7
			C379.8,24.7,381.4,26.5,381.4,30.2z"/>
		<path d="M397.9,25.1v12.8c0,2.1-0.5,3.6-1.6,4.6c-1.1,1-2.6,1.6-4.7,1.6c-2.4,0-4.4-0.6-6.1-1.9l0.8-1.7c0.9,0.6,1.8,1,2.6,1.3
			c0.8,0.3,1.7,0.4,2.7,0.4c1.3,0,2.3-0.4,3-1.1c0.7-0.7,1-1.7,1-3.1v-2.4c-0.4,0.9-1,1.6-1.8,2c-0.8,0.5-1.8,0.7-2.9,0.7
			c-1.2,0-2.3-0.3-3.2-0.8c-0.9-0.6-1.7-1.4-2.2-2.4c-0.5-1-0.8-2.2-0.8-3.6s0.3-2.6,0.8-3.6c0.5-1,1.2-1.8,2.2-2.4
			c0.9-0.6,2-0.8,3.2-0.8c1.1,0,2,0.2,2.9,0.7c0.8,0.5,1.4,1.1,1.8,2v-2.4H397.9z M394.5,35.2c0.8-0.9,1.1-2.1,1.1-3.6
			c0-1.5-0.4-2.7-1.1-3.6c-0.7-0.9-1.8-1.3-3.1-1.3s-2.4,0.4-3.1,1.3c-0.8,0.9-1.1,2.1-1.1,3.6c0,1.5,0.4,2.8,1.1,3.6
			c0.8,0.9,1.8,1.3,3.1,1.3C392.7,36.5,393.7,36.1,394.5,35.2z"/>
	</g>
	<g>
		<path d="M431.5,18.9h7.6c2,0,3.6,0.5,4.7,1.5c1.1,1,1.7,2.4,1.7,4.2c0,1.8-0.6,3.2-1.7,4.2s-2.7,1.5-4.7,1.5h-5.4v7.9h-2.2V18.9z
			 M438.9,28.4c2.9,0,4.4-1.3,4.4-3.8c0-2.5-1.5-3.8-4.4-3.8h-5.2v7.6H438.9z"/>
		<path d="M456.1,26.4l-1.4,0.1c-1.4,0.1-2.4,0.6-3,1.3c-0.6,0.7-0.9,1.6-0.9,2.7v7.6h-2.2V24.9h2.2v2.3c0.7-1.5,2.2-2.4,4.4-2.6
			l0.8-0.1L456.1,26.4z"/>
		<path d="M460.1,37.5c-1-0.6-1.7-1.4-2.2-2.4c-0.5-1-0.8-2.3-0.8-3.6c0-1.4,0.3-2.6,0.8-3.6c0.5-1,1.3-1.9,2.2-2.4
			c1-0.6,2.1-0.8,3.3-0.8c1.3,0,2.4,0.3,3.3,0.8c1,0.6,1.7,1.4,2.2,2.4c0.5,1,0.8,2.3,0.8,3.6c0,1.4-0.3,2.6-0.8,3.6
			c-0.5,1-1.3,1.9-2.2,2.4c-1,0.6-2.1,0.8-3.3,0.8C462.1,38.3,461,38.1,460.1,37.5z M466.4,35.2c0.7-0.9,1.1-2.1,1.1-3.8
			c0-1.6-0.4-2.9-1.1-3.8c-0.7-0.9-1.7-1.3-3-1.3c-1.3,0-2.3,0.4-3,1.3c-0.7,0.9-1.1,2.1-1.1,3.8c0,1.6,0.3,2.9,1.1,3.8
			c0.7,0.9,1.7,1.3,3,1.3C464.7,36.5,465.7,36.1,466.4,35.2z"/>
		<path d="M475.3,37.5c-1-0.6-1.7-1.4-2.2-2.4c-0.5-1-0.8-2.2-0.8-3.6c0-1.4,0.3-2.6,0.8-3.6c0.5-1,1.3-1.9,2.3-2.4
			c1-0.6,2.1-0.9,3.4-0.9c0.9,0,1.8,0.2,2.6,0.5c0.9,0.3,1.5,0.7,2.1,1.3l-0.7,1.6c-1.3-1-2.5-1.5-3.8-1.5c-1.4,0-2.4,0.4-3.2,1.3
			c-0.8,0.9-1.1,2.1-1.1,3.8c0,1.6,0.4,2.8,1.1,3.7c0.8,0.9,1.8,1.3,3.2,1.3c1.3,0,2.6-0.5,3.8-1.5l0.7,1.6
			c-0.6,0.5-1.3,0.9-2.1,1.3c-0.9,0.3-1.7,0.5-2.6,0.5C477.4,38.3,476.2,38.1,475.3,37.5z"/>
		<path d="M497.3,31.8h-9.7c0.1,1.5,0.5,2.7,1.3,3.5c0.8,0.8,1.8,1.2,3.2,1.2c1.5,0,3-0.5,4.3-1.6l0.7,1.6c-0.6,0.5-1.3,1-2.2,1.3
			c-0.9,0.3-1.8,0.5-2.8,0.5c-2.1,0-3.7-0.6-4.9-1.8c-1.2-1.2-1.8-2.9-1.8-5.1c0-1.4,0.3-2.6,0.8-3.6c0.5-1,1.3-1.9,2.2-2.4
			c1-0.6,2-0.9,3.3-0.9c1.8,0,3.1,0.6,4.2,1.7c1,1.2,1.5,2.7,1.5,4.8V31.8z M488.8,27.3c-0.7,0.7-1.1,1.8-1.2,3.1h7.7
			c0-1.3-0.4-2.4-1-3.1c-0.6-0.7-1.5-1.1-2.7-1.1C490.5,26.2,489.5,26.6,488.8,27.3z"/>
		<path d="M499.7,36.6l0.7-1.6c0.7,0.6,1.4,1,2.2,1.2c0.7,0.2,1.6,0.4,2.5,0.4c1,0,1.7-0.2,2.3-0.5c0.5-0.3,0.8-0.8,0.8-1.5
			c0-0.5-0.2-0.9-0.5-1.3c-0.3-0.3-0.9-0.6-1.7-0.7l-2.2-0.5c-1.1-0.3-2-0.7-2.6-1.3c-0.6-0.6-0.9-1.4-0.9-2.3
			c0-1.2,0.5-2.1,1.4-2.9c0.9-0.7,2.2-1.1,3.7-1.1c0.9,0,1.8,0.1,2.6,0.4c0.8,0.3,1.5,0.7,2.1,1.3l-0.7,1.6c-1.2-1-2.6-1.6-4-1.6
			c-0.9,0-1.7,0.2-2.2,0.5c-0.5,0.4-0.8,0.9-0.8,1.5c0,0.5,0.2,1,0.5,1.3c0.3,0.3,0.8,0.6,1.5,0.7l2.3,0.5c1.2,0.3,2.2,0.7,2.8,1.3
			c0.6,0.6,0.9,1.4,0.9,2.3c0,1.2-0.5,2.1-1.4,2.8c-0.9,0.7-2.2,1-3.8,1C502.8,38.3,501,37.8,499.7,36.6z"/>
		<path d="M512.8,36.6l0.7-1.6c0.7,0.6,1.4,1,2.2,1.2c0.7,0.2,1.6,0.4,2.5,0.4c1,0,1.7-0.2,2.3-0.5c0.5-0.3,0.8-0.8,0.8-1.5
			c0-0.5-0.2-0.9-0.5-1.3c-0.3-0.3-0.9-0.6-1.7-0.7l-2.2-0.5c-1.1-0.3-2-0.7-2.6-1.3c-0.6-0.6-0.9-1.4-0.9-2.3
			c0-1.2,0.5-2.1,1.4-2.9c0.9-0.7,2.2-1.1,3.7-1.1c0.9,0,1.8,0.1,2.6,0.4c0.8,0.3,1.5,0.7,2.1,1.3l-0.7,1.6c-1.2-1-2.6-1.6-4-1.6
			c-0.9,0-1.7,0.2-2.2,0.5c-0.5,0.4-0.8,0.9-0.8,1.5c0,0.5,0.2,1,0.5,1.3c0.3,0.3,0.8,0.6,1.5,0.7l2.3,0.5c1.2,0.3,2.2,0.7,2.8,1.3
			c0.6,0.6,0.9,1.4,0.9,2.3c0,1.2-0.5,2.1-1.4,2.8c-0.9,0.7-2.2,1-3.8,1C515.9,38.3,514.1,37.8,512.8,36.6z"/>
		<path d="M548.2,18.9h2.3l-8.4,19.2h-1.9l-8.4-19.2h2.3l7,16.4L548.2,18.9z"/>
		<path d="M562.2,31.8h-9.7c0.1,1.5,0.5,2.7,1.3,3.5c0.8,0.8,1.8,1.2,3.2,1.2c1.5,0,3-0.5,4.3-1.6l0.7,1.6c-0.6,0.5-1.3,1-2.2,1.3
			c-0.9,0.3-1.8,0.5-2.8,0.5c-2.1,0-3.7-0.6-4.9-1.8c-1.2-1.2-1.8-2.9-1.8-5.1c0-1.4,0.3-2.6,0.8-3.6c0.5-1,1.3-1.9,2.2-2.4
			c1-0.6,2-0.9,3.3-0.9c1.8,0,3.1,0.6,4.2,1.7c1,1.2,1.5,2.7,1.5,4.8V31.8z M553.8,27.3c-0.7,0.7-1.1,1.8-1.2,3.1h7.7
			c0-1.3-0.4-2.4-1-3.1c-0.6-0.7-1.5-1.1-2.7-1.1C555.5,26.2,554.5,26.6,553.8,27.3z"/>
		<path d="M564.7,36.6l0.7-1.6c0.7,0.6,1.4,1,2.2,1.2c0.7,0.2,1.6,0.4,2.5,0.4c1,0,1.7-0.2,2.3-0.5c0.5-0.3,0.8-0.8,0.8-1.5
			c0-0.5-0.2-0.9-0.5-1.3c-0.3-0.3-0.9-0.6-1.7-0.7l-2.2-0.5c-1.1-0.3-2-0.7-2.6-1.3c-0.6-0.6-0.9-1.4-0.9-2.3
			c0-1.2,0.5-2.1,1.4-2.9c0.9-0.7,2.2-1.1,3.7-1.1c0.9,0,1.8,0.1,2.6,0.4c0.8,0.3,1.5,0.7,2.1,1.3l-0.7,1.6c-1.2-1-2.6-1.6-4-1.6
			c-0.9,0-1.7,0.2-2.2,0.5c-0.5,0.4-0.8,0.9-0.8,1.5c0,0.5,0.2,1,0.5,1.3c0.3,0.3,0.8,0.6,1.5,0.7l2.3,0.5c1.2,0.3,2.2,0.7,2.8,1.3
			c0.6,0.6,0.9,1.4,0.9,2.3c0,1.2-0.5,2.1-1.4,2.8c-0.9,0.7-2.2,1-3.8,1C567.8,38.3,566,37.8,564.7,36.6z"/>
		<path d="M577.8,36.6l0.7-1.6c0.7,0.6,1.4,1,2.2,1.2c0.7,0.2,1.6,0.4,2.5,0.4c1,0,1.7-0.2,2.3-0.5c0.5-0.3,0.8-0.8,0.8-1.5
			c0-0.5-0.2-0.9-0.5-1.3c-0.3-0.3-0.9-0.6-1.7-0.7l-2.2-0.5c-1.1-0.3-2-0.7-2.6-1.3c-0.6-0.6-0.9-1.4-0.9-2.3
			c0-1.2,0.5-2.1,1.4-2.9c0.9-0.7,2.2-1.1,3.7-1.1c0.9,0,1.8,0.1,2.6,0.4c0.8,0.3,1.5,0.7,2.1,1.3l-0.7,1.6c-1.2-1-2.6-1.6-4-1.6
			c-0.9,0-1.7,0.2-2.2,0.5c-0.5,0.4-0.8,0.9-0.8,1.5c0,0.5,0.2,1,0.5,1.3c0.3,0.3,0.8,0.6,1.5,0.7l2.3,0.5c1.2,0.3,2.2,0.7,2.8,1.3
			c0.6,0.6,0.9,1.4,0.9,2.3c0,1.2-0.5,2.1-1.4,2.8c-0.9,0.7-2.2,1-3.8,1C580.9,38.3,579.1,37.8,577.8,36.6z"/>
		<path d="M602.8,31.8h-9.7c0.1,1.5,0.5,2.7,1.3,3.5c0.8,0.8,1.8,1.2,3.2,1.2c1.5,0,3-0.5,4.3-1.6l0.7,1.6c-0.6,0.5-1.3,1-2.2,1.3
			c-0.9,0.3-1.8,0.5-2.8,0.5c-2.1,0-3.7-0.6-4.9-1.8s-1.8-2.9-1.8-5.1c0-1.4,0.3-2.6,0.8-3.6c0.5-1,1.3-1.9,2.2-2.4
			c1-0.6,2-0.9,3.3-0.9c1.8,0,3.1,0.6,4.2,1.7c1,1.2,1.5,2.7,1.5,4.8V31.8z M594.4,27.3c-0.7,0.7-1.1,1.8-1.2,3.1h7.7
			c0-1.3-0.4-2.4-1-3.1c-0.6-0.7-1.5-1.1-2.7-1.1C596.1,26.2,595.1,26.6,594.4,27.3z"/>
		<path d="M606.1,38.1V18.9h2.2v19.2H606.1z"/>
		<path d="M611.6,36.6l0.7-1.6c0.7,0.6,1.4,1,2.2,1.2c0.7,0.2,1.6,0.4,2.5,0.4c1,0,1.7-0.2,2.3-0.5c0.5-0.3,0.8-0.8,0.8-1.5
			c0-0.5-0.2-0.9-0.5-1.3c-0.3-0.3-0.9-0.6-1.7-0.7l-2.2-0.5c-1.1-0.3-2-0.7-2.6-1.3c-0.6-0.6-0.9-1.4-0.9-2.3
			c0-1.2,0.5-2.1,1.4-2.9c0.9-0.7,2.2-1.1,3.7-1.1c0.9,0,1.8,0.1,2.6,0.4c0.8,0.3,1.5,0.7,2.1,1.3l-0.7,1.6c-1.2-1-2.6-1.6-4-1.6
			c-0.9,0-1.7,0.2-2.2,0.5c-0.5,0.4-0.8,0.9-0.8,1.5c0,0.5,0.2,1,0.5,1.3c0.3,0.3,0.8,0.6,1.5,0.7l2.3,0.5c1.2,0.3,2.2,0.7,2.8,1.3
			c0.6,0.6,0.9,1.4,0.9,2.3c0,1.2-0.5,2.1-1.4,2.8c-0.9,0.7-2.2,1-3.8,1C614.7,38.3,612.9,37.8,611.6,36.6z"/>
	</g>
	<g>
		<path d="M655.8,38.8V18.9h12.3v1.9h-10v6.9h9.5v1.9h-9.5v9.2H655.8z"/>
		<path d="M671,19.1h2.8v2.6H671V19.1z M671.2,38.8V25.1h2.3v13.8H671.2z"/>
		<path d="M677.8,38.8V18.9h2.3v19.9H677.8z"/>
		<path d="M691.6,37.1l-0.1,1.8c-0.4,0.1-0.9,0.1-1.4,0.1c-1.7,0-2.9-0.4-3.7-1.3c-0.8-0.9-1.3-2.1-1.3-3.6v-7.2h-2.7v-1.8h2.7v-4.2
			h2.3v4.2h3.9v1.8h-3.9v7.1c0,2.2,1,3.2,3,3.2C690.8,37.2,691.2,37.1,691.6,37.1z"/>
		<path d="M705.5,32.3h-10.1c0.1,1.6,0.5,2.8,1.3,3.6c0.8,0.8,1.9,1.2,3.4,1.2c1.6,0,3.1-0.5,4.4-1.6l0.8,1.7
			c-0.6,0.6-1.4,1-2.3,1.3C702,38.8,701,39,700,39c-2.1,0-3.8-0.6-5.1-1.9c-1.2-1.3-1.9-3-1.9-5.2c0-1.4,0.3-2.7,0.8-3.7
			c0.5-1.1,1.3-1.9,2.3-2.5c1-0.6,2.1-0.9,3.4-0.9c1.8,0,3.3,0.6,4.3,1.8c1,1.2,1.6,2.8,1.6,4.9V32.3z M696.7,27.6
			c-0.7,0.8-1.2,1.8-1.3,3.2h8c0-1.4-0.4-2.5-1-3.2c-0.7-0.7-1.6-1.1-2.8-1.1C698.4,26.5,697.5,26.9,696.7,27.6z"/>
		<path d="M716.6,26.7l-1.5,0.1c-1.4,0.1-2.4,0.6-3.1,1.3c-0.6,0.8-0.9,1.7-0.9,2.8v7.9h-2.3V25.1h2.2v2.4c0.8-1.6,2.3-2.5,4.5-2.7
			l0.8-0.1L716.6,26.7z"/>
		<path d="M718.6,19.1h2.8v2.6h-2.8V19.1z M718.8,38.8V25.1h2.3v13.8H718.8z"/>
		<path d="M737.2,30.2v8.6h-2.3v-8.5c0-1.3-0.2-2.2-0.7-2.8s-1.3-0.9-2.4-0.9c-1.3,0-2.3,0.4-3,1.2c-0.8,0.8-1.1,1.8-1.1,3.1v7.9
			h-2.3V25.1h2.3v2.3c0.5-0.8,1.1-1.5,1.9-1.9c0.8-0.4,1.7-0.7,2.8-0.7C735.6,24.7,737.2,26.5,737.2,30.2z"/>
		<path d="M753.7,25.1v12.8c0,2.1-0.5,3.6-1.6,4.6c-1.1,1-2.6,1.6-4.7,1.6c-2.4,0-4.4-0.6-6.1-1.9l0.8-1.7c0.9,0.6,1.8,1,2.6,1.3
			c0.8,0.3,1.7,0.4,2.7,0.4c1.3,0,2.3-0.4,3-1.1c0.7-0.7,1-1.7,1-3.1v-2.4c-0.4,0.9-1,1.6-1.8,2c-0.8,0.5-1.8,0.7-2.9,0.7
			c-1.2,0-2.3-0.3-3.2-0.8c-0.9-0.6-1.7-1.4-2.2-2.4c-0.5-1-0.8-2.2-0.8-3.6c0-1.4,0.3-2.6,0.8-3.6c0.5-1,1.2-1.8,2.2-2.4
			c0.9-0.6,2-0.8,3.2-0.8c1.1,0,2,0.2,2.9,0.7c0.8,0.5,1.4,1.1,1.8,2v-2.4H753.7z M750.3,35.2c0.8-0.9,1.1-2.1,1.1-3.6
			c0-1.5-0.4-2.7-1.1-3.6c-0.7-0.9-1.8-1.3-3.1-1.3s-2.4,0.4-3.1,1.3c-0.8,0.9-1.1,2.1-1.1,3.6c0,1.5,0.4,2.8,1.1,3.6
			c0.8,0.9,1.8,1.3,3.1,1.3C748.5,36.5,749.5,36.1,750.3,35.2z"/>
	</g>
</g>
</svg>
