<?xml version="1.0" encoding="utf-8"?>
<!-- Generator: Adobe Illustrator 22.0.0, SVG Export Plug-In . SVG Version: 6.00 Build 0)  -->
<svg version="1.1" id="Layer_1" xmlns="http://www.w3.org/2000/svg" xmlns:xlink="http://www.w3.org/1999/xlink" x="0px" y="0px"
	 viewBox="0 0 512 512" style="enable-background:new 0 0 512 512;" xml:space="preserve">
<style type="text/css">
	.st0{fill:#FFFFFF;}
</style>
<path class="st0" d="M445.3,129.2c0.5,0.1,1.1,0.1,1.6,0.1c3.8,0,7.4-1.5,10.1-4.2l50.8-50.8c3.9-3.9,5.2-9.8,3.3-15
	c-1.9-5.2-6.7-8.9-12.2-9.4l-33.9-3.1L462,13c-0.5-5.5-4.2-10.3-9.4-12.2c-1.6-0.6-3.2-0.9-4.9-0.9c-3.8,0-7.4,1.5-10.1,4.2
	l-50.8,50.8c-3.1,3.1-4.6,7.4-4.1,11.7l4.2,38.1l-4.6,4.6c-35.3-30.9-80-49.5-126.7-52.6V43.5c0-7.9-6.4-14.3-14.3-14.3
	c-7.9,0-14.3,6.4-14.3,14.3v13.2c-51.7,3.4-100.3,25.5-137.2,62.4C53,156,31,204.5,27.5,256.3H14.3c-7.9,0-14.3,6.4-14.3,14.3
	s6.4,14.3,14.3,14.3h13.2C31,336.6,53,385.2,89.9,422.1c36.9,36.9,85.5,58.9,137.2,62.4v13.2c0,7.9,6.4,14.3,14.3,14.3
	c7.9,0,14.3-6.4,14.3-14.3v-13.2C307.5,481,356,459,392.9,422.1s58.9-85.5,62.4-137.2h13.2c7.9,0,14.3-6.4,14.3-14.3
	s-6.4-14.3-14.3-14.3h-13.2c-3.1-46.7-21.6-91.4-52.6-126.7l4.6-4.6L445.3,129.2z M418.5,256.3c-7.9,0-14.3,6.4-14.3,14.3
	s6.4,14.3,14.3,14.3h8c-7,91.7-79.2,163.9-170.9,170.9v-8c0-7.9-6.4-14.3-14.3-14.3c-7.9,0-14.3,6.4-14.3,14.3v8
	c-91.7-7-163.9-79.2-170.9-170.9h8c7.9,0,14.3-6.4,14.3-14.3s-6.4-14.3-14.3-14.3h-8c7-91.7,79.2-163.9,170.9-170.9v8
	c0,7.9,6.4,14.3,14.3,14.3c7.9,0,14.3-6.4,14.3-14.3v-8c39.1,3,76.5,18.6,106.4,44.2L340.7,151c-27.9-23.2-63-35.9-99.3-35.9
	c-85.8,0-155.5,69.8-155.5,155.5c0,85.8,69.8,155.5,155.5,155.5s155.5-69.8,155.5-155.5c0-36.3-12.7-71.4-35.9-99.3l21.4-21.4
	c25.6,29.9,41.2,67.3,44.2,106.4H418.5z M241.4,338.6c-37.5,0-68.1-30.5-68.1-68.1c0-37.5,30.5-68.1,68.1-68.1
	c13.2,0,25.9,3.8,36.9,10.9l-47,47c-5.6,5.6-5.6,14.7,0,20.2c2.7,2.7,6.3,4.2,10.1,4.2c3.8,0,7.4-1.5,10.1-4.2l47-47
	c7.2,11,10.9,23.6,10.9,36.9C309.5,308.1,278.9,338.6,241.4,338.6z M298.9,192.9c-16.6-12.3-36.8-19-57.5-19
	c-53.3,0-96.7,43.4-96.7,96.7c0,53.3,43.4,96.7,96.7,96.7c53.3,0,96.7-43.4,96.7-96.7c0-20.6-6.7-40.9-19-57.5l21.5-21.5
	c17.9,22.4,27.7,50.3,27.7,79c0,70-56.9,126.9-126.9,126.9c-70,0-126.9-56.9-126.9-126.9s56.9-126.9,126.9-126.9
	c28.7,0,56.6,9.8,79,27.7L298.9,192.9z M437.7,61.4c0.6,6.9,6.1,12.3,13,13l15.3,1.4L441.7,100L415,97l-3-26.7l24.3-24.3L437.7,61.4
	z"/>
</svg>
