<?xml version="1.0" encoding="utf-8"?>
<!-- Generator: Adobe Illustrator 22.0.0, SVG Export Plug-In . SVG Version: 6.00 Build 0)  -->
<svg version="1.1" id="Capa_1" xmlns="http://www.w3.org/2000/svg" xmlns:xlink="http://www.w3.org/1999/xlink" x="0px" y="0px"
	 viewBox="0 0 512 512" style="enable-background:new 0 0 512 512;" xml:space="preserve">
<style type="text/css">
	.st0{fill:#FCFCFC;}
</style>
<g>
	<g>
		<path class="st0" d="M256,70c-80,0-145,65-145,145s65,145,145,145s145-65,145-145S336,70,256,70z M256,330
			c-63.4,0-115-51.6-115-115s51.6-115,115-115s115,51.6,115,115S319.4,330,256,330z"/>
	</g>
</g>
<g>
	<g>
		<path class="st0" d="M471,215c0-20-9-38.6-24.7-51c7.4-18.6,5.9-39.2-4.1-56.5s-27.1-28.9-46.9-31.8
			c-2.9-19.8-14.5-36.9-31.8-46.9c-17.3-10-37.9-11.5-56.5-4.1C294.6,9,276,0,256,0s-38.6,9-51,24.7c-18.6-7.4-39.2-5.9-56.5,4.1
			c-17.3,10-28.9,27.1-31.8,46.9c-19.8,2.9-36.9,14.5-46.9,31.8s-11.5,37.9-4.1,56.5C50,176.4,41,195,41,215s9,38.6,24.7,51
			c-7.4,18.6-5.9,39.2,4.1,56.5c10,17.3,27.1,28.9,46.9,31.8c2.9,19.8,14.5,36.9,31.8,46.9c4,2.3,8.2,4.2,12.5,5.6V512h27.6
			l67.4-24.1l67.4,24.1H351V406.7c4.3-1.4,8.5-3.2,12.5-5.6c17.3-10,28.9-27.1,31.8-46.9c19.8-2.9,36.9-14.5,46.9-31.8
			c10-17.3,11.5-37.9,4.1-56.5C462,253.6,471,235,471,215z M321,479.3l-65-23.2l-65,23.2v-70.1c4.7-0.7,9.4-2,14-3.8
			c12.4,15.7,31,24.7,51,24.7s38.6-9,51-24.7c4.6,1.8,9.3,3.1,14,3.8V479.3z M427.7,242.4c-10.5,8.3-14.2,22.2-9.3,34.6
			c4,10,3.2,21.1-2.2,30.4c-5.4,9.3-14.6,15.6-25.2,17.1c-13.2,1.9-23.4,12.1-25.3,25.3c-1.6,10.7-7.8,19.9-17.1,25.2
			c-9.3,5.4-20.4,6.2-30.4,2.2c-12.4-4.9-26.3-1.2-34.6,9.3c-6.7,8.5-16.7,13.3-27.5,13.3c-10.8,0-20.8-4.8-27.4-13.3
			c-5.9-7.4-14.5-11.4-23.5-11.4c-3.7,0-7.5,0.7-11.2,2.2c-10,4-21.1,3.2-30.4-2.2c-9.3-5.4-15.6-14.6-17.1-25.2
			c-1.9-13.2-12.1-23.4-25.3-25.3c-10.7-1.6-19.9-7.8-25.2-17.1s-6.2-20.4-2.2-30.4c4.9-12.4,1.2-26.3-9.3-34.6
			C75.8,235.8,71,225.8,71,215s4.8-20.8,13.3-27.4c10.5-8.3,14.2-22.2,9.3-34.6c-4-10-3.2-21.1,2.2-30.4
			c5.4-9.3,14.6-15.6,25.2-17.1c13.2-1.9,23.4-12.1,25.3-25.3c1.6-10.7,7.8-19.9,17.1-25.2c9.3-5.4,20.4-6.2,30.4-2.2
			c12.4,4.9,26.3,1.2,34.6-9.3C235.2,34.8,245.2,30,256,30c10.8,0,20.8,4.8,27.5,13.3c8.3,10.5,22.2,14.2,34.6,9.3
			c10-4,21.1-3.2,30.4,2.2c9.3,5.4,15.6,14.6,17.1,25.2c1.9,13.2,12.1,23.4,25.3,25.3c10.7,1.6,19.9,7.8,25.2,17.1
			s6.2,20.4,2.2,30.4c-4.9,12.4-1.2,26.3,9.3,34.6c8.5,6.7,13.3,16.7,13.3,27.4S436.2,235.8,427.7,242.4z"/>
	</g>
</g>
<g>
	<g>
		<polygon class="st0" points="291.5,170.4 242.4,219.8 220.4,198 199.3,219.4 242.6,262.2 312.8,191.6 		"/>
	</g>
</g>
</svg>
