<?xml version="1.0" encoding="utf-8"?>
<!-- Generator: Adobe Illustrator 22.0.0, SVG Export Plug-In . SVG Version: 6.00 Build 0)  -->
<svg version="1.1" id="Layer_1" xmlns="http://www.w3.org/2000/svg" xmlns:xlink="http://www.w3.org/1999/xlink" x="0px" y="0px"
	 viewBox="0 0 48 48" style="enable-background:new 0 0 48 48;" xml:space="preserve">
<path d="M28.7,31l-7-7l7-7l-2.2-2.2L17.3,24l9.2,9.2L28.7,31z"/>
<g>
	<path d="M24,44C13,44,4,35,4,24S13,4,24,4c11,0,20,9,20,20S35,44,24,44z M24,7C14.6,7,7,14.6,7,24c0,9.4,7.6,17,17,17s17-7.6,17-17
		C41,14.6,33.4,7,24,7z"/>
</g>
</svg>
