<?xml version="1.0" encoding="utf-8"?>
<!-- Generator: Adobe Illustrator 22.0.0, SVG Export Plug-In . SVG Version: 6.00 Build 0)  -->
<svg version="1.1" id="Layer_1" xmlns="http://www.w3.org/2000/svg" xmlns:xlink="http://www.w3.org/1999/xlink" x="0px" y="0px"
	 viewBox="0 0 473.9 473.9" style="enable-background:new 0 0 473.9 473.9;" xml:space="preserve">
<style type="text/css">
	.st0{fill:#4A86C5;}
	.st1{fill:#FFFFFF;}
	.st2{fill:#377CA5;}
</style>
<path class="st0" d="M253.6,187.3c0.1-0.2,0.2-0.3,0.3-0.5v0.5H253.6z"/>
<path class="st1" d="M237,0C106.1,0,0,106.1,0,237s106.1,237,237,237c130.9,0,237-106.1,237-237S367.8,0,237,0z M174.8,318.3h-50.9
	V165.1h50.9V318.3z M149.4,144.2H149c-17.1,0-28.2-11.8-28.2-26.5c0-15,11.4-26.5,28.8-26.5c17.4,0,28.2,11.4,28.5,26.5
	C178.2,132.4,167.1,144.2,149.4,144.2z M358.6,318.3h-51v-82c0-20.6-7.4-34.7-25.8-34.7c-14.1,0-22.5,9.5-26.2,18.6
	c-1.3,3.3-1.7,7.8-1.7,12.4v85.6H203c0,0,0.7-138.9,0-153.3H254v21.7c6.8-10.4,18.9-25.3,45.9-25.3c33.5,0,58.7,21.9,58.7,69V318.3z
	"/>
<path class="st0" d="M462.6,309.3c0.9-2.7,1.7-5.5,2.4-8.2C464.3,303.8,463.5,306.6,462.6,309.3z"/>
<polygon class="st2" points="465.1,301 465.1,301 465.1,301.1 "/>
</svg>
