<?xml version="1.0" encoding="utf-8"?>
<!-- Generator: Adobe Illustrator 22.0.0, SVG Export Plug-In . SVG Version: 6.00 Build 0)  -->
<svg version="1.1" id="Layer_1" xmlns="http://www.w3.org/2000/svg" xmlns:xlink="http://www.w3.org/1999/xlink" x="0px" y="0px"
	 viewBox="0 0 128.3 149.8" style="enable-background:new 0 0 128.3 149.8;" xml:space="preserve">
<style type="text/css">
	.st0{fill:none;stroke:#004D40;stroke-width:3.896;stroke-miterlimit:10;}
	.st1{fill:#004D40;}
</style>
<g>
	<path class="st0" d="M126.1,24.1c0,33.9,0,67.7,0,101.7c-0.5,13.4-3.1,20.2-17.6,22h-0.2H2L1.9,1.9h3.5c34.2,0,68.3,0,102.5,0h0.2
		C121.5,2.6,127.3,10.9,126.1,24.1z"/>
	<path class="st1" d="M12.4,124.5h7.9c1.6,0,2.8,0.2,3.8,0.6c1,0.4,1.8,1,2.3,1.7c0.6,0.7,1.1,1.6,1.4,2.5c0.3,1,0.4,1.9,0.4,3.1
		c0,1.7-0.2,3-0.6,3.9c-0.4,1-1,1.8-1.8,2.3c-0.8,0.6-1.6,1.1-2.4,1.3c-1.2,0.3-2.2,0.4-3.1,0.4h-7.9L12.4,124.5L12.4,124.5z
		 M17.8,128.1v8.7h1.3c1.1,0,1.9-0.1,2.3-0.4c0.5-0.2,0.9-0.6,1.1-1.2c0.3-0.6,0.4-1.5,0.4-2.7c0-1.7-0.3-2.8-0.9-3.4
		c-0.6-0.6-1.6-1-2.9-1L17.8,128.1L17.8,128.1z M31.1,140.3v-15.8H40c1.7,0,2.9,0.1,3.8,0.4c0.9,0.3,1.6,0.8,2.1,1.5
		s0.8,1.6,0.8,2.5s-0.2,1.7-0.6,2.2c-0.4,0.7-1,1.2-1.7,1.6c-0.5,0.3-1.1,0.5-1.9,0.6c0.7,0.2,1.1,0.4,1.4,0.6
		c0.2,0.1,0.5,0.4,0.9,0.9c0.4,0.4,0.6,0.8,0.8,1l2.5,4.6h-6l-2.8-4.9c-0.4-0.6-0.7-1.1-1-1.3c-0.4-0.2-0.8-0.4-1.3-0.4h-0.5v6.4
		L31.1,140.3L31.1,140.3L31.1,140.3z M36.5,130.9h2.2c0.2,0,0.7-0.1,1.4-0.2c0.4-0.1,0.7-0.2,0.9-0.5s0.3-0.6,0.3-0.9
		c0-0.5-0.2-0.9-0.5-1.2c-0.4-0.3-1-0.4-1.9-0.4h-2.3v3.2H36.5z M49.4,136h5.1v4.4h-5.1V136L49.4,136z M65.8,140.3v-15.8h8.9
		c1.7,0,2.9,0.1,3.8,0.4c0.9,0.3,1.6,0.8,2.1,1.5s0.8,1.6,0.8,2.5s-0.2,1.7-0.6,2.2c-0.4,0.7-1,1.2-1.7,1.6
		c-0.5,0.3-1.1,0.5-1.9,0.6c0.6,0.2,1.1,0.4,1.4,0.6c0.2,0.1,0.5,0.4,0.9,0.9c0.4,0.4,0.6,0.8,0.8,1l2.5,4.6h-6l-2.8-4.9
		c-0.4-0.6-0.7-1.1-1-1.3c-0.4-0.2-0.8-0.4-1.3-0.4h-0.5v6.4L65.8,140.3L65.8,140.3L65.8,140.3z M71.1,130.9h2.2
		c0.2,0,0.7-0.1,1.4-0.2c0.4-0.1,0.7-0.2,0.9-0.5c0.2-0.3,0.3-0.6,0.3-0.9c0-0.5-0.2-0.9-0.5-1.2c-0.4-0.3-1-0.4-1.9-0.4h-2.3
		L71.1,130.9L71.1,130.9z M94.9,137.7l0.9,2.6h5.6L95,124.4h-5.8l-6.4,15.9h5.4l0.9-2.6H94.9L94.9,137.7z M93.8,134.3H90l1.9-5.7
		L93.8,134.3L93.8,134.3z M110.2,124.5h5.4v8.6c0,1.9-0.2,3.2-0.5,4.1c-0.4,1-1.1,1.8-2.1,2.4c-1.1,0.7-2.4,1-4,1
		c-1.8,0-3.1-0.2-4-0.7c-1-0.4-1.7-1.1-2.2-1.9c-0.5-0.9-0.8-1.9-0.9-3.1l5.1-0.7c0,0.7,0.1,1.3,0.2,1.6s0.3,0.6,0.6,0.8
		c0.2,0.1,0.5,0.2,0.9,0.2c0.6,0,1.1-0.2,1.3-0.6c0.3-0.4,0.4-1.1,0.4-2v-9.7H110.2z M28.9,35c-5.6-7.9-11.4-15.8-17-23.7
		c24.2,0.1,48.3,0.2,72.6,0.4c38.2,8,41.9,58,6.4,68.6c8.9,11.4,16.3,22.7,25.1,34.1c-9.4,0.1-17.5,0.2-27.1,0.3
		c-13.1-17-26.4-34.2-39.5-51.2c10.2-0.2,20.6-0.4,30.8-0.6c14.1-4.5,11.3-23.9-0.3-26.7C63,35.7,45.9,35.4,28.9,35L28.9,35z
		 M39.1,69.5l-27.3,45.2h59.9L39.1,69.5z"/>
</g>
</svg>
