<?xml version="1.0" encoding="utf-8"?>
<!-- Generator: Adobe Illustrator 22.0.0, SVG Export Plug-In . SVG Version: 6.00 Build 0)  -->
<svg version="1.1" id="Layer_1" xmlns="http://www.w3.org/2000/svg" xmlns:xlink="http://www.w3.org/1999/xlink" x="0px" y="0px"
	 viewBox="0 0 48 48" style="enable-background:new 0 0 48 48;" xml:space="preserve">
<path d="M19.3,17l7,7l-7,7l2.2,2.2l9.2-9.2l-9.2-9.2L19.3,17z"/>
<g>
	<path d="M24,44C13,44,4,35,4,24C4,13,13,4,24,4s20,9,20,20C44,35,35,44,24,44z M24,7C14.6,7,7,14.6,7,24s7.6,17,17,17
		c9.4,0,17-7.6,17-17S33.4,7,24,7z"/>
</g>
</svg>
